<svg width="236" height="178" viewBox="0 0 236 178" fill="none" xmlns="http://www.w3.org/2000/svg">
<path d="M200.24 90.41C219.631 90.41 235.35 70.5851 235.35 46.13C235.35 21.6748 219.631 1.84998 200.24 1.84998C180.849 1.84998 165.13 21.6748 165.13 46.13C165.13 70.5851 180.849 90.41 200.24 90.41Z" fill="#04616E"/>
<path d="M200.24 176.56C199.41 176.56 198.74 175.89 198.74 175.06V27.1599C198.74 26.3299 199.41 25.6599 200.24 25.6599C201.07 25.6599 201.74 26.3299 201.74 27.1599V175.06C201.74 175.89 201.07 176.56 200.24 176.56Z" fill="white"/>
<path d="M200.38 65.6399C200.03 65.6399 199.68 65.5199 199.39 65.2699C198.77 64.7199 198.7 63.7799 199.25 63.1499L216.6 43.3199C217.14 42.6999 218.09 42.6299 218.72 43.1799C219.34 43.7299 219.41 44.6699 218.86 45.2999L201.51 65.1299C201.21 65.4699 200.8 65.6399 200.38 65.6399Z" fill="white"/>
<path d="M199.35 49.7399C198.96 49.7399 198.57 49.59 198.27 49.29L183.19 33.7999C182.61 33.2099 182.63 32.2599 183.22 31.6799C183.81 31.0999 184.76 31.1099 185.34 31.7099L200.42 47.2C201 47.79 200.98 48.74 200.39 49.32C200.1 49.6 199.72 49.7399 199.34 49.7399H199.35Z" fill="white"/>
<path d="M180.01 99.5899C196.131 99.5899 209.2 83.1051 209.2 62.7699C209.2 42.4348 196.131 25.95 180.01 25.95C163.889 25.95 150.82 42.4348 150.82 62.7699C150.82 83.1051 163.889 99.5899 180.01 99.5899Z" fill="#F7C23E"/>
<path d="M180.01 177.31C179.18 177.31 178.51 176.64 178.51 175.81V45.34C178.51 44.51 179.18 43.84 180.01 43.84C180.84 43.84 181.51 44.51 181.51 45.34V175.81C181.51 176.64 180.84 177.31 180.01 177.31Z" fill="white"/>
<path d="M179.76 59.2C179.34 59.2 178.93 59.03 178.63 58.69L169.79 48.63C169.24 48.01 169.3 47.06 169.93 46.51C170.55 45.96 171.5 46.0199 172.05 46.6499L180.89 56.7099C181.44 57.3299 181.38 58.2799 180.75 58.8299C180.46 59.0799 180.11 59.2 179.76 59.2Z" fill="white"/>
<path d="M180.71 85.8399C180.33 85.8399 179.94 85.6899 179.65 85.3999C179.07 84.8099 179.07 83.8599 179.65 83.2799L195.83 67.1799C196.42 66.5999 197.37 66.5999 197.95 67.1799C198.53 67.7699 198.53 68.7199 197.95 69.2999L181.77 85.3999C181.48 85.6899 181.1 85.8399 180.71 85.8399Z" fill="white"/>
<path d="M17.9302 177.11C17.1002 177.11 16.4302 176.44 16.4302 175.61V128.98C16.4302 128.15 17.1002 127.48 17.9302 127.48C18.7602 127.48 19.4302 128.15 19.4302 128.98V175.61C19.4302 176.44 18.7602 177.11 17.9302 177.11Z" fill="#04616E"/>
<path d="M17.9302 130.5C23.8562 130.5 28.6602 125.696 28.6602 119.77C28.6602 113.844 23.8562 109.04 17.9302 109.04C12.0042 109.04 7.2002 113.844 7.2002 119.77C7.2002 125.696 12.0042 130.5 17.9302 130.5Z" fill="#F76757"/>
<path d="M17.9298 125.86C21.2933 125.86 24.0198 123.133 24.0198 119.77C24.0198 116.407 21.2933 113.68 17.9298 113.68C14.5664 113.68 11.8398 116.407 11.8398 119.77C11.8398 123.133 14.5664 125.86 17.9298 125.86Z" fill="#F7C23E"/>
<path d="M14.09 140.46C18.81 147.08 17.9 155.81 17.9 155.81C17.9 155.81 9.33998 153.82 4.62998 147.2C-0.0900161 140.58 0.819986 131.85 0.819986 131.85C0.819986 131.85 9.37998 133.84 14.09 140.46Z" fill="#04616E"/>
<path d="M164.66 59.53H31.4902V176.56H164.66V59.53Z" fill="#B7E8EF"/>
<path d="M164.66 59.53H31.4902V67.26H164.66V59.53Z" fill="#55B9C6"/>
<path d="M164.66 59.53H104.62V176.56H164.66V59.53Z" fill="white"/>
<path d="M104.63 59.53H164.66L134.4 8.57996L104.63 59.53Z" fill="white"/>
<path d="M130.33 70.21H115.33V102.02H130.33V70.21Z" fill="#F7C23E"/>
<path d="M153.96 70.21H138.96V102.02H153.96V70.21Z" fill="#F7C23E"/>
<path d="M130.33 118.05H115.33V149.86H130.33V118.05Z" fill="#F7C23E"/>
<path d="M153.96 118.05H138.96V149.86H153.96V118.05Z" fill="#F7C23E"/>
<path d="M104.63 59.53H31.4902L60.4902 8.57996H134.4L104.63 59.53Z" fill="#F76757"/>
<path d="M99.3001 0.130005H70.3301V28.5H99.3001V0.130005Z" fill="#F7C23E"/>
<path d="M99.3003 0.130005H92.3203V28.5H99.3003V0.130005Z" fill="white"/>
</svg>
