<svg width="463" height="250" viewBox="0 0 463 250" fill="none" xmlns="http://www.w3.org/2000/svg">
<g clip-path="url(#clip0_44_792)">
<g clip-path="url(#clip1_44_792)">
<path d="M428.18 206.64C447.571 206.64 463.29 186.815 463.29 162.36C463.29 137.905 447.571 118.08 428.18 118.08C408.789 118.08 393.07 137.905 393.07 162.36C393.07 186.815 408.789 206.64 428.18 206.64Z" fill="#04616E"/>
<path d="M428.18 256.79C427.35 256.79 426.68 256.12 426.68 255.29V143.39C426.68 142.56 427.35 141.89 428.18 141.89C429.01 141.89 429.68 142.56 429.68 143.39V255.29C429.68 256.12 429.01 256.79 428.18 256.79Z" fill="white"/>
<path d="M428.32 181.87C427.97 181.87 427.62 181.75 427.33 181.5C426.71 180.95 426.64 180.01 427.19 179.38L444.54 159.55C445.08 158.93 446.03 158.86 446.66 159.41C447.28 159.96 447.35 160.9 446.8 161.53L429.45 181.36C429.15 181.7 428.74 181.87 428.32 181.87Z" fill="white"/>
<path d="M427.29 165.97C426.9 165.97 426.51 165.82 426.21 165.52L411.13 150.03C410.55 149.44 410.57 148.49 411.16 147.91C411.75 147.33 412.7 147.34 413.28 147.94L428.36 163.43C428.94 164.02 428.92 164.97 428.33 165.55C428.04 165.83 427.66 165.97 427.28 165.97H427.29Z" fill="white"/>
<path d="M35.55 141.02C54.9407 141.02 70.66 121.195 70.66 96.74C70.66 72.2848 54.9407 52.46 35.55 52.46C16.1593 52.46 0.440002 72.2848 0.440002 96.74C0.440002 121.195 16.1593 141.02 35.55 141.02Z" fill="#04616E"/>
<path d="M35.55 191.16C34.72 191.16 34.05 190.49 34.05 189.66V75.76C34.05 74.93 34.72 74.26 35.55 74.26C36.38 74.26 37.05 74.93 37.05 75.76V189.66C37.05 190.49 36.38 191.16 35.55 191.16Z" fill="white"/>
<path d="M35.41 116.25C34.99 116.25 34.58 116.08 34.28 115.74L16.93 95.91C16.38 95.29 16.45 94.34 17.07 93.79C17.69 93.24 18.64 93.31 19.19 93.93L36.54 113.76C37.09 114.38 37.02 115.33 36.4 115.88C36.12 116.13 35.76 116.25 35.41 116.25Z" fill="white"/>
<path d="M35.24 92.14C34.82 92.14 34.41 91.97 34.11 91.63L23.47 79.52C22.92 78.9 22.98 77.95 23.61 77.4C24.23 76.85 25.18 76.92 25.73 77.54L36.37 89.65C36.92 90.27 36.86 91.22 36.23 91.77C35.94 92.02 35.59 92.14 35.24 92.14Z" fill="white"/>
<path d="M36.1 115.57C35.72 115.57 35.35 115.43 35.05 115.15C34.46 114.57 34.44 113.62 35.02 113.03L50.1 97.5399C50.68 96.9399 51.63 96.9299 52.22 97.5099C52.81 98.0899 52.83 99.0399 52.25 99.6299L37.17 115.12C36.88 115.42 36.49 115.57 36.1 115.57Z" fill="white"/>
<path d="M143.59 88.24C159.711 88.24 172.78 71.7551 172.78 51.42C172.78 31.0849 159.711 14.6 143.59 14.6C127.469 14.6 114.4 31.0849 114.4 51.42C114.4 71.7551 127.469 88.24 143.59 88.24Z" fill="#F7C23E"/>
<path d="M143.59 130.17C142.76 130.17 142.09 129.5 142.09 128.67V33.98C142.09 33.15 142.76 32.48 143.59 32.48C144.42 32.48 145.09 33.15 145.09 33.98V128.67C145.09 129.5 144.42 130.17 143.59 130.17Z" fill="white"/>
<path d="M143.34 47.84C142.92 47.84 142.51 47.67 142.21 47.33L133.37 37.27C132.82 36.65 132.88 35.7 133.51 35.15C134.13 34.6 135.08 34.66 135.63 35.29L144.47 45.35C145.02 45.97 144.96 46.92 144.33 47.47C144.04 47.72 143.69 47.84 143.34 47.84Z" fill="white"/>
<path d="M144.29 74.48C143.91 74.48 143.52 74.33 143.23 74.04C142.65 73.45 142.65 72.5 143.23 71.92L159.41 55.82C160 55.24 160.95 55.24 161.53 55.82C162.11 56.41 162.11 57.36 161.53 57.94L145.35 74.04C145.06 74.33 144.68 74.48 144.29 74.48Z" fill="white"/>
<path d="M204.47 96.6599C203.92 96.6599 203.47 96.2099 203.47 95.6599V58.1199C203.47 57.5699 203.92 57.1199 204.47 57.1199C205.02 57.1199 205.47 57.5699 205.47 58.1199V95.6599C205.47 96.2099 205.02 96.6599 204.47 96.6599Z" fill="#04616E"/>
<path d="M204.47 59.3399C209.242 59.3399 213.11 55.4717 213.11 50.6999C213.11 45.9282 209.242 42.0599 204.47 42.0599C199.698 42.0599 195.83 45.9282 195.83 50.6999C195.83 55.4717 199.698 59.3399 204.47 59.3399Z" fill="white"/>
<path d="M204.47 55.5999C207.176 55.5999 209.37 53.4061 209.37 50.6999C209.37 47.9937 207.176 45.7999 204.47 45.7999C201.764 45.7999 199.57 47.9937 199.57 50.6999C199.57 53.4061 201.764 55.5999 204.47 55.5999Z" fill="#F76757"/>
<path d="M201.47 73.5699C204.93 78.4299 204.26 84.8399 204.26 84.8399C204.26 84.8399 197.98 83.3799 194.52 78.5199C191.06 73.6599 191.73 67.2499 191.73 67.2499C191.73 67.2499 198.01 68.7099 201.47 73.5699Z" fill="#04616E"/>
<path d="M212.33 69.9799C209.66 73.5299 204.95 74.4999 204.95 74.4999C204.95 74.4999 204.58 69.7099 207.25 66.1499C209.92 62.5999 214.63 61.6299 214.63 61.6299C214.63 61.6299 215 66.4199 212.33 69.9799Z" fill="#04616E"/>
<path d="M240.53 94.1799C239.7 94.1799 239.03 93.5099 239.03 92.6799V46.0499C239.03 45.2199 239.7 44.5499 240.53 44.5499C241.36 44.5499 242.03 45.2199 242.03 46.0499V92.6799C242.03 93.5099 241.36 94.1799 240.53 94.1799Z" fill="#04616E"/>
<path d="M240.53 47.57C246.456 47.57 251.26 42.766 251.26 36.84C251.26 30.914 246.456 26.11 240.53 26.11C234.604 26.11 229.8 30.914 229.8 36.84C229.8 42.766 234.604 47.57 240.53 47.57Z" fill="#F76757"/>
<path d="M240.53 42.93C243.893 42.93 246.62 40.2034 246.62 36.84C246.62 33.4766 243.893 30.75 240.53 30.75C237.167 30.75 234.44 33.4766 234.44 36.84C234.44 40.2034 237.167 42.93 240.53 42.93Z" fill="#F7C23E"/>
<path d="M236.7 57.5299C241.42 64.1499 240.51 72.8799 240.51 72.8799C240.51 72.8799 231.95 70.8899 227.24 64.2699C222.52 57.6499 223.43 48.9199 223.43 48.9199C223.43 48.9199 231.99 50.9099 236.7 57.5299Z" fill="#04616E"/>
<path d="M270.82 203.62C320.802 203.62 361.32 170.341 361.32 129.29C361.32 88.2386 320.802 54.96 270.82 54.96C220.838 54.96 180.32 88.2386 180.32 129.29C180.32 170.341 220.838 203.62 270.82 203.62Z" fill="white"/>
<path d="M270.82 194.62C225.88 194.62 189.32 165.31 189.32 129.29C189.32 93.27 225.88 63.96 270.82 63.96C315.76 63.96 352.32 93.27 352.32 129.29C352.32 165.31 315.76 194.62 270.82 194.62ZM270.82 65.95C226.99 65.95 191.32 94.36 191.32 129.28C191.32 164.2 226.98 192.61 270.82 192.61C314.66 192.61 350.32 164.2 350.32 129.28C350.32 94.36 314.66 65.95 270.82 65.95Z" fill="#04616E"/>
<path d="M270.82 184.62C231.4 184.62 199.32 159.8 199.32 129.29C199.32 98.78 231.39 73.96 270.82 73.96C310.25 73.96 342.32 98.78 342.32 129.29C342.32 159.8 310.25 184.62 270.82 184.62ZM270.82 75.95C232.5 75.95 201.32 99.88 201.32 129.28C201.32 158.68 232.5 182.61 270.82 182.61C309.14 182.61 340.32 158.68 340.32 129.28C340.32 99.88 309.14 75.95 270.82 75.95Z" fill="#04616E"/>
<path d="M270.82 174.62C254 174.62 238.25 169.63 226.49 160.56C215.42 152.03 209.32 140.92 209.32 129.29C209.32 117.66 215.42 106.55 226.49 98.02C238.25 88.95 254 83.96 270.82 83.96C287.64 83.96 303.39 88.95 315.15 98.02C326.22 106.55 332.32 117.66 332.32 129.29C332.32 140.92 326.22 152.03 315.15 160.56C303.38 169.63 287.64 174.62 270.82 174.62ZM270.82 85.95C254.44 85.95 239.12 90.8 227.71 99.59C217.14 107.73 211.32 118.28 211.32 129.28C211.32 140.28 217.14 150.82 227.71 158.97C239.13 167.77 254.44 172.61 270.82 172.61C287.2 172.61 302.51 167.76 313.93 158.97C324.5 150.82 330.32 140.28 330.32 129.28C330.32 118.28 324.5 107.74 313.93 99.59C302.51 90.79 287.2 85.95 270.82 85.95Z" fill="#04616E"/>
<path d="M270.82 164.62C256.2 164.62 242.62 160.37 232.59 152.64C224.03 146.04 219.32 137.75 219.32 129.29C219.32 120.83 224.03 112.53 232.59 105.94C242.61 98.21 256.19 93.96 270.82 93.96C285.45 93.96 299.02 98.21 309.05 105.94C317.61 112.53 322.32 120.83 322.32 129.29C322.32 137.75 317.61 146.05 309.05 152.64C299.02 160.37 285.45 164.62 270.82 164.62ZM270.82 95.95C256.63 95.95 243.49 100.06 233.81 107.52C225.76 113.73 221.32 121.46 221.32 129.29C221.32 137.12 225.76 144.85 233.81 151.06C243.49 158.52 256.63 162.63 270.82 162.63C285.01 162.63 298.15 158.52 307.83 151.07C315.88 144.86 320.32 137.13 320.32 129.3C320.32 121.47 315.88 113.74 307.83 107.53C298.15 100.07 285.01 95.96 270.82 95.96V95.95Z" fill="#04616E"/>
<path d="M270.82 154.62C258.39 154.62 246.98 151.1 238.7 144.72C232.65 140.06 229.32 134.58 229.32 129.29C229.32 124 232.65 118.52 238.7 113.86C246.98 107.47 258.39 103.96 270.82 103.96C283.25 103.96 294.66 107.48 302.94 113.86C308.99 118.52 312.32 124 312.32 129.29C312.32 134.58 308.99 140.06 302.94 144.72C294.65 151.1 283.25 154.62 270.82 154.62ZM270.82 105.95C258.83 105.95 247.85 109.32 239.92 115.44C234.38 119.71 231.32 124.63 231.32 129.29C231.32 133.95 234.37 138.87 239.92 143.14C247.86 149.26 258.83 152.63 270.82 152.63C282.81 152.63 293.78 149.26 301.72 143.15C307.26 138.88 310.32 133.96 310.32 129.3C310.32 124.64 307.27 119.72 301.72 115.45C293.78 109.33 282.81 105.96 270.82 105.96V105.95Z" fill="#04616E"/>
<path d="M127.59 211.56C169.105 211.56 202.76 182.812 202.76 147.35C202.76 111.888 169.105 83.14 127.59 83.14C86.0748 83.14 52.42 111.888 52.42 147.35C52.42 182.812 86.0748 211.56 127.59 211.56Z" fill="white"/>
<path d="M127.59 201.4C91.75 201.4 62.59 177.16 62.59 147.36C62.59 117.56 91.75 93.3101 127.59 93.3101C163.43 93.3101 192.59 117.56 192.59 147.36C192.59 177.16 163.43 201.4 127.59 201.4ZM127.59 95.3101C92.85 95.3101 64.59 118.66 64.59 147.36C64.59 176.06 92.85 199.4 127.59 199.4C162.33 199.4 190.59 176.05 190.59 147.36C190.59 118.67 162.33 95.3101 127.59 95.3101Z" fill="#04616E"/>
<path d="M127.59 190.23C97.9 190.23 73.75 170.99 73.75 147.35C73.75 123.71 97.9 104.47 127.59 104.47C157.28 104.47 181.43 123.71 181.43 147.35C181.43 170.99 157.28 190.23 127.59 190.23ZM127.59 106.47C99.01 106.47 75.75 124.81 75.75 147.35C75.75 169.89 99.01 188.23 127.59 188.23C156.17 188.23 179.43 169.89 179.43 147.35C179.43 124.81 156.18 106.47 127.59 106.47Z" fill="#04616E"/>
<path d="M127.59 179.07C104.46 179.07 84.91 164.55 84.91 147.35C84.91 130.15 104.45 115.63 127.59 115.63C150.73 115.63 170.26 130.15 170.26 147.35C170.26 164.55 150.72 179.07 127.59 179.07ZM127.59 117.63C105.54 117.63 86.91 131.24 86.91 147.35C86.91 163.46 105.54 177.07 127.59 177.07C149.64 177.07 168.26 163.46 168.26 147.35C168.26 131.24 149.63 117.63 127.59 117.63Z" fill="#04616E"/>
<path d="M127.59 169.07C118.7 169.07 109.97 166.39 103.62 161.71C98.09 157.63 94.91 152.4 94.91 147.35C94.91 142.3 98.08 137.07 103.62 132.99C109.97 128.31 118.7 125.63 127.59 125.63C136.48 125.63 145.21 128.31 151.56 132.99C157.09 137.07 160.27 142.3 160.27 147.35C160.27 152.4 157.1 157.63 151.56 161.71C145.21 166.39 136.48 169.07 127.59 169.07ZM127.59 127.63C119.12 127.63 110.82 130.17 104.81 134.6C99.79 138.3 96.92 142.94 96.92 147.35C96.92 151.76 99.8 156.4 104.81 160.1C110.82 164.53 119.12 167.07 127.59 167.07C136.06 167.07 144.36 164.53 150.37 160.1C155.38 156.4 158.26 151.76 158.26 147.35C158.26 142.94 155.38 138.3 150.37 134.6C144.36 130.17 136.06 127.63 127.59 127.63Z" fill="#04616E"/>
<path d="M131.95 44.72H70.67L79.94 0.03L101.13 0L131.95 44.72Z" fill="#04616E"/>
<path d="M131.95 44.72H110.77V179.58H131.95V44.72Z" fill="#F76757"/>
<path d="M49.49 179.57H110.77L110.77 44.7099H49.49L49.49 179.57Z" fill="white"/>
<path d="M110.76 44.72H49.48L79.94 0L110.76 44.72Z" fill="white"/>
<path d="M75.61 58.48H63.37V93.16H75.61V58.48Z" fill="#B7E8EF"/>
<path d="M96.88 58.48H84.64V93.16H96.88V58.48Z" fill="#B7E8EF"/>
<path d="M75.61 108.16H63.37V142.84H75.61V108.16Z" fill="#F7C23E"/>
<path d="M96.88 108.16H84.64V142.84H96.88V108.16Z" fill="#F7C23E"/>
<path d="M25.92 252.16H72.97L72.97 173.13H25.92L25.92 252.16Z" fill="white"/>
<path d="M175.05 173.13H72.97V252.16H175.05V173.13Z" fill="#F7C23E"/>
<path d="M175.31 173.13H25.91L49.3 138.72L151.52 138.63L175.31 173.13Z" fill="#B7E8EF"/>
<path d="M72.96 173.13H25.91L49.3 138.72L72.96 173.13Z" fill="white"/>
<path d="M104.16 198.81H91.2V219.66H104.16V198.81Z" fill="#04616E"/>
<path d="M133.47 198.81H120.51V219.66H133.47V198.81Z" fill="#04616E"/>
<path d="M52.61 219.66H63.46V198.81H52.61V219.66Z" fill="#F76757"/>
<path d="M35.42 219.66H46.27V198.81H35.42V219.66Z" fill="#F76757"/>
<path d="M49.44 186.62C53.6815 186.62 57.12 183.182 57.12 178.94C57.12 174.698 53.6815 171.26 49.44 171.26C45.1985 171.26 41.76 174.698 41.76 178.94C41.76 183.182 45.1985 186.62 49.44 186.62Z" fill="#F7C23E"/>
<path d="M414.4 101.08H242.48V252.16H414.4V101.08Z" fill="#B7E8EF"/>
<path d="M414.4 101.08H242.48V111.05H414.4V101.08Z" fill="#55B9C6"/>
<path d="M414.4 101.08H336.88V252.16H414.4V101.08Z" fill="white"/>
<path d="M336.89 101.08H414.4L375.33 35.3L336.89 101.08Z" fill="white"/>
<path d="M370.06 114.86H350.7V155.93H370.06V114.86Z" fill="#F7C23E"/>
<path d="M400.57 114.86H381.21V155.93H400.57V114.86Z" fill="#F7C23E"/>
<path d="M336.89 101.08H242.48L279.91 35.3H375.33L336.89 101.08Z" fill="#F76757"/>
<path d="M330.01 24.38H292.61V61.01H330.01V24.38Z" fill="#F7C23E"/>
<path d="M330.02 24.38H321.01V61.01H330.02V24.38Z" fill="white"/>
<path d="M146.83 158.24H304.16L276.37 117.35L175.09 117.24L146.83 158.24Z" fill="#F7C23E"/>
<path d="M304.16 158.24H248.24V252.16H304.16V158.24Z" fill="white"/>
<path d="M248.25 158.24H304.16L276.37 117.35L248.25 158.24Z" fill="white"/>
<path d="M276.2 181.16C282.341 181.16 287.32 176.181 287.32 170.04C287.32 163.899 282.341 158.92 276.2 158.92C270.059 158.92 265.08 163.899 265.08 170.04C265.08 176.181 270.059 181.16 276.2 181.16Z" fill="#F76757"/>
<path d="M146.7 252.16H248.24V158.24H146.7V252.16Z" fill="#F76757"/>
<path d="M177.97 171.57H164.84V189.68H177.97V171.57Z" fill="white"/>
<path d="M204.04 171.57H190.91V189.68H204.04V171.57Z" fill="white"/>
<path d="M230.1 171.57H216.97V189.68H230.1V171.57Z" fill="white"/>
<path d="M177.97 203.05H164.84V221.16H177.97V203.05Z" fill="white"/>
<path d="M204.04 203.05H190.91V221.16H204.04V203.05Z" fill="white"/>
<path d="M230.1 203.05H216.97V221.16H230.1V203.05Z" fill="white"/>
<path d="M398.13 255.71C397.3 255.71 396.63 255.04 396.63 254.21V207.58C396.63 206.75 397.3 206.08 398.13 206.08C398.96 206.08 399.63 206.75 399.63 207.58V254.21C399.63 255.04 398.96 255.71 398.13 255.71Z" fill="#04616E"/>
<path d="M398.13 209.09C404.056 209.09 408.86 204.286 408.86 198.36C408.86 192.434 404.056 187.63 398.13 187.63C392.204 187.63 387.4 192.434 387.4 198.36C387.4 204.286 392.204 209.09 398.13 209.09Z" fill="#F76757"/>
<path d="M398.13 204.45C401.493 204.45 404.22 201.723 404.22 198.36C404.22 194.997 401.493 192.27 398.13 192.27C394.767 192.27 392.04 194.997 392.04 198.36C392.04 201.723 394.767 204.45 398.13 204.45Z" fill="#F7C23E"/>
<path d="M393.65 225.71C398.37 232.33 397.46 241.06 397.46 241.06C397.46 241.06 388.9 239.07 384.19 232.45C379.48 225.83 380.38 217.1 380.38 217.1C380.38 217.1 388.94 219.09 393.65 225.71Z" fill="#04616E"/>
<path d="M12.8 255.21C12.25 255.21 11.8 254.76 11.8 254.21V216.67C11.8 216.12 12.25 215.67 12.8 215.67C13.35 215.67 13.8 216.12 13.8 216.67V254.21C13.8 254.76 13.35 255.21 12.8 255.21Z" fill="#04616E"/>
<path d="M12.8 217.89C17.5717 217.89 21.44 214.022 21.44 209.25C21.44 204.478 17.5717 200.61 12.8 200.61C8.02826 200.61 4.16 204.478 4.16 209.25C4.16 214.022 8.02826 217.89 12.8 217.89Z" fill="#F7C23E"/>
<path d="M12.8 214.15C15.5062 214.15 17.7 211.956 17.7 209.25C17.7 206.544 15.5062 204.35 12.8 204.35C10.0938 204.35 7.9 206.544 7.9 209.25C7.9 211.956 10.0938 214.15 12.8 214.15Z" fill="#F76757"/>
<path d="M9.79 232.11C13.25 236.97 12.58 243.38 12.58 243.38C12.58 243.38 6.3 241.92 2.84 237.06C-0.619997 232.21 0.0500033 225.8 0.0500033 225.8C0.0500033 225.8 6.33 227.26 9.79 232.12V232.11Z" fill="#04616E"/>
<path d="M20.66 228.53C17.99 232.08 13.28 233.05 13.28 233.05C13.28 233.05 12.91 228.26 15.58 224.7C18.25 221.15 22.96 220.18 22.96 220.18C22.96 220.18 23.33 224.97 20.66 228.53Z" fill="#04616E"/>
</g>
</g>
<defs>
<clipPath id="clip0_44_792">
<rect width="463" height="250" fill="white"/>
</clipPath>
<clipPath id="clip1_44_792">
<rect width="463.29" height="256.79" fill="white"/>
</clipPath>
</defs>
</svg>
