<svg width="193" height="214" viewBox="0 0 193 214" fill="none" xmlns="http://www.w3.org/2000/svg">
<path d="M157.69 132.37C177.081 132.37 192.8 112.545 192.8 88.09C192.8 63.6348 177.081 43.81 157.69 43.81C138.299 43.81 122.58 63.6348 122.58 88.09C122.58 112.545 138.299 132.37 157.69 132.37Z" fill="#5B5B5B"/>
<path d="M157.69 213.69C156.86 213.69 156.19 213.02 156.19 212.19V69.13C156.19 68.3 156.86 67.63 157.69 67.63C158.52 67.63 159.19 68.3 159.19 69.13V212.2C159.19 213.03 158.52 213.7 157.69 213.7V213.69Z" fill="white"/>
<path d="M157.82 107.61C157.47 107.61 157.12 107.49 156.83 107.24C156.21 106.69 156.14 105.75 156.69 105.12L174.04 85.29C174.58 84.67 175.53 84.6 176.16 85.15C176.78 85.7 176.85 86.64 176.3 87.27L158.95 107.1C158.65 107.44 158.24 107.61 157.82 107.61Z" fill="white"/>
<path d="M156.79 91.7C156.4 91.7 156.01 91.55 155.71 91.25L140.63 75.76C140.05 75.17 140.07 74.22 140.66 73.64C141.25 73.06 142.2 73.07 142.78 73.67L157.86 89.16C158.44 89.75 158.42 90.7 157.83 91.28C157.54 91.56 157.16 91.7 156.78 91.7H156.79Z" fill="white"/>
<path d="M35.6901 162.05C55.0808 162.05 70.8001 142.225 70.8001 117.77C70.8001 93.3148 55.0808 73.49 35.6901 73.49C16.2994 73.49 0.580078 93.3148 0.580078 117.77C0.580078 142.225 16.2994 162.05 35.6901 162.05Z" fill="#5B5B5B"/>
<path d="M35.6899 212.19C34.8599 212.19 34.1899 211.52 34.1899 210.69V96.79C34.1899 95.96 34.8599 95.29 35.6899 95.29C36.5199 95.29 37.1899 95.96 37.1899 96.79V210.69C37.1899 211.52 36.5199 212.19 35.6899 212.19Z" fill="white"/>
<path d="M35.55 137.28C35.13 137.28 34.72 137.11 34.42 136.77L17.07 116.94C16.52 116.32 16.59 115.37 17.21 114.82C17.83 114.27 18.78 114.34 19.33 114.96L36.68 134.79C37.23 135.41 37.16 136.36 36.54 136.91C36.26 137.16 35.9 137.28 35.55 137.28Z" fill="white"/>
<path d="M35.3801 113.17C34.9601 113.17 34.5501 113 34.2501 112.66L23.61 100.55C23.06 99.93 23.1201 98.98 23.7501 98.43C24.3701 97.88 25.3201 97.95 25.8701 98.57L36.5101 110.68C37.0601 111.3 37.0001 112.25 36.3701 112.8C36.0801 113.05 35.7301 113.17 35.3801 113.17Z" fill="white"/>
<path d="M36.2403 136.6C35.8603 136.6 35.4903 136.46 35.1903 136.18C34.6003 135.6 34.5803 134.65 35.1603 134.06L50.2403 118.57C50.8203 117.97 51.7703 117.96 52.3603 118.54C52.9503 119.12 52.9703 120.07 52.3903 120.66L37.3103 136.15C37.0203 136.45 36.6303 136.6 36.2403 136.6Z" fill="white"/>
<path d="M141.26 44.72H79.9902L89.2502 0.03L110.45 0L141.26 44.72Z" fill="#5B5B5B"/>
<path d="M141.26 44.72H120.08V210.95H141.26V44.72Z" fill="#838383"/>
<path d="M58.8001 210.94H120.08L120.08 44.7099H58.8001L58.8001 210.94Z" fill="white"/>
<path d="M120.07 44.72H58.7998L89.2598 0L120.07 44.72Z" fill="white"/>
<path d="M84.9299 58.48H72.6899V93.16H84.9299V58.48Z" fill="#A9A9A9"/>
<path d="M106.2 58.48H93.96V93.16H106.2V58.48Z" fill="#A9A9A9"/>
<path d="M84.9299 157.85H72.6899V192.53H84.9299V157.85Z" fill="#A9A9A9"/>
<path d="M106.2 157.85H93.96V192.53H106.2V157.85Z" fill="#A9A9A9"/>
<path d="M84.9299 108.16H72.6899V142.84H84.9299V108.16Z" fill="#D4D4D4"/>
<path d="M106.2 108.16H93.96V142.84H106.2V108.16Z" fill="#D4D4D4"/>
<path d="M145.42 212.44C144.87 212.44 144.42 211.99 144.42 211.44V173.9C144.42 173.35 144.87 172.9 145.42 172.9C145.97 172.9 146.42 173.35 146.42 173.9V211.44C146.42 211.99 145.97 212.44 145.42 212.44Z" fill="#5B5B5B"/>
<path d="M145.42 175.12C150.192 175.12 154.06 171.252 154.06 166.48C154.06 161.708 150.192 157.84 145.42 157.84C140.649 157.84 136.78 161.708 136.78 166.48C136.78 171.252 140.649 175.12 145.42 175.12Z" fill="#D4D4D4"/>
<path d="M145.42 171.38C148.126 171.38 150.32 169.186 150.32 166.48C150.32 163.774 148.126 161.58 145.42 161.58C142.714 161.58 140.52 163.774 140.52 166.48C140.52 169.186 142.714 171.38 145.42 171.38Z" fill="#838383"/>
<path d="M142.42 189.35C145.88 194.21 145.21 200.62 145.21 200.62C145.21 200.62 138.93 199.16 135.47 194.3C132.01 189.44 132.68 183.03 132.68 183.03C132.68 183.03 138.96 184.49 142.42 189.35Z" fill="#5B5B5B"/>
<path d="M153.28 185.76C150.61 189.31 145.9 190.28 145.9 190.28C145.9 190.28 145.53 185.49 148.2 181.93C150.87 178.38 155.58 177.41 155.58 177.41C155.58 177.41 155.95 182.2 153.28 185.76Z" fill="#5B5B5B"/>
</svg>
