<?xml version="1.0" encoding="UTF-8"?>
<svg id="OBJECTS" xmlns="http://www.w3.org/2000/svg" viewBox="0 0 778.14 314.71">
  <defs>
    <style>
      .cls-1 {
        fill: #f7c23e;
      }

      .cls-1, .cls-2, .cls-3, .cls-4, .cls-5, .cls-6, .cls-7, .cls-8 {
        stroke-width: 0px;
      }

      .cls-2 {
        fill: #55b9c6;
      }

      .cls-3 {
        fill: #e2bd9e;
      }

      .cls-4 {
        fill: #b7e8ef;
      }

      .cls-5 {
        fill: #9f744b;
      }

      .cls-6 {
        fill: #fff;
      }

      .cls-7 {
        fill: #f76757;
      }

      .cls-8 {
        fill: #04616e;
      }
    </style>
  </defs>
  <rect class="cls-3" x="-8.41" y="-11.84" width="799.3" height="338.38"/>
  <circle class="cls-5" cx="71.6" cy="54.15" r="34.43"/>
  <circle class="cls-5" cx="106.03" cy="254.47" r="40.52"/>
  <circle class="cls-5" cx="188.3" cy="134.69" r="36.26"/>
  <circle class="cls-5" cx="315.88" cy="240.6" r="36.26"/>
  <circle class="cls-5" cx="399.42" cy="74.75" r="37.33"/>
  <circle class="cls-5" cx="751.98" cy="240.6" r="36.26"/>
  <g>
    <path class="cls-8" d="M714.08,242.26c15.72,0,28.46-16.07,28.46-35.9s-12.74-35.9-28.46-35.9-28.46,16.07-28.46,35.9,12.74,35.9,28.46,35.9Z"/>
    <path class="cls-6" d="M714.08,282.91c-.67,0-1.22-.54-1.22-1.22v-90.71c0-.67.54-1.22,1.22-1.22s1.22.54,1.22,1.22v90.71c0,.67-.54,1.22-1.22,1.22Z"/>
    <path class="cls-6" d="M714.19,222.18c-.28,0-.57-.1-.8-.3-.5-.45-.56-1.21-.11-1.72l14.06-16.08c.44-.5,1.21-.56,1.72-.11.5.45.56,1.21.11,1.72l-14.06,16.08c-.24.28-.58.41-.92.41Z"/>
    <path class="cls-6" d="M713.36,209.29c-.32,0-.63-.12-.88-.36l-12.22-12.56c-.47-.48-.45-1.25.02-1.72s1.25-.46,1.72.02l12.22,12.56c.47.48.45,1.25-.02,1.72-.24.23-.54.34-.85.34h0Z"/>
    <path class="cls-8" d="M586.52,200.09c-10.08,0-19.33-2.85-26.04-8.03-4.9-3.78-7.6-8.22-7.6-12.51s2.7-8.73,7.6-12.51c6.71-5.18,15.96-8.03,26.04-8.03s19.33,2.85,26.04,8.03c4.9,3.78,7.6,8.22,7.6,12.51s-2.7,8.73-7.6,12.51c-6.72,5.17-15.96,8.03-26.04,8.03ZM586.52,160.63c-9.72,0-18.62,2.73-25.05,7.69-4.49,3.46-6.97,7.45-6.97,11.23s2.47,7.77,6.97,11.23c6.44,4.96,15.33,7.69,25.05,7.69s18.61-2.73,25.05-7.68c4.49-3.46,6.97-7.45,6.97-11.23s-2.47-7.77-6.97-11.23c-6.44-4.96-15.33-7.69-25.05-7.69h0Z"/>
    <path class="cls-8" d="M473.94,111h-49.68l7.51-36.23,17.18-.02,24.98,36.25Z"/>
    <path class="cls-7" d="M473.94,111h-17.17v109.32h17.17v-109.32Z"/>
    <path class="cls-6" d="M407.1,220.31h49.68v-109.32h-49.68v109.32Z"/>
    <path class="cls-6" d="M456.76,111h-49.68l24.69-36.25,24.98,36.25Z"/>
    <path class="cls-4" d="M428.27,122.15h-9.92v28.11h9.92v-28.11Z"/>
    <path class="cls-4" d="M445.51,122.15h-9.92v28.11h9.92v-28.11Z"/>
    <path class="cls-1" d="M428.27,162.42h-9.92v28.11h9.92v-28.11Z"/>
    <path class="cls-1" d="M445.51,162.42h-9.92v28.11h9.92v-28.11Z"/>
    <path class="cls-6" d="M387.99,279.16h38.14v-64.07h-38.14v64.07Z"/>
    <path class="cls-1" d="M508.88,215.09h-82.75v64.07h82.75v-64.07Z"/>
    <path class="cls-4" d="M509.09,215.09h-121.11l18.96-27.89,82.86-.07,19.29,27.97Z"/>
    <path class="cls-6" d="M426.12,215.09h-38.14l18.96-27.89,19.18,27.89Z"/>
    <path class="cls-8" d="M451.41,235.91h-10.51v16.9h10.51v-16.9Z"/>
    <path class="cls-8" d="M475.17,235.91h-10.51v16.9h10.51v-16.9Z"/>
    <path class="cls-7" d="M409.62,252.81h8.8v-16.9h-8.8v16.9Z"/>
    <path class="cls-7" d="M395.69,252.81h8.8v-16.9h-8.8v16.9Z"/>
    <path class="cls-1" d="M407.06,226.03c3.44,0,6.23-2.79,6.23-6.23s-2.79-6.23-6.23-6.23-6.23,2.79-6.23,6.23,2.79,6.23,6.23,6.23Z"/>
    <path class="cls-4" d="M702.91,156.69h-139.37v122.47h139.37v-122.47Z"/>
    <path class="cls-2" d="M702.91,156.69h-139.37v8.08h139.37v-8.08Z"/>
    <path class="cls-6" d="M702.91,156.69h-62.84v122.47h62.84v-122.47Z"/>
    <path class="cls-6" d="M640.08,156.69h62.83l-31.67-53.32-31.16,53.32Z"/>
    <path class="cls-1" d="M666.96,167.86h-15.69v33.29h15.69v-33.29Z"/>
    <path class="cls-1" d="M691.7,167.86h-15.69v33.29h15.69v-33.29Z"/>
    <path class="cls-7" d="M640.08,156.69h-76.53l30.34-53.32h77.35l-31.16,53.32Z"/>
    <path class="cls-1" d="M634.5,94.51h-30.32v29.69h30.32v-29.69Z"/>
    <path class="cls-6" d="M634.51,94.51h-7.3v29.69h7.3v-29.69Z"/>
    <path class="cls-1" d="M486,203.02h127.54l-22.53-33.15-82.1-.09-22.91,33.24Z"/>
    <path class="cls-6" d="M613.54,203.02h-45.33v76.14h45.33v-76.14Z"/>
    <path class="cls-6" d="M568.22,203.02h45.32l-22.53-33.15-22.8,33.15Z"/>
    <path class="cls-7" d="M590.88,221.6c4.98,0,9.01-4.04,9.01-9.01s-4.04-9.01-9.01-9.01-9.01,4.04-9.01,9.01,4.04,9.01,9.01,9.01Z"/>
    <path class="cls-7" d="M485.9,279.16h82.31v-76.14h-82.31v76.14Z"/>
    <path class="cls-6" d="M511.25,213.83h-10.64v14.68h10.64v-14.68Z"/>
    <path class="cls-6" d="M532.38,213.83h-10.64v14.68h10.64v-14.68Z"/>
    <path class="cls-6" d="M553.51,213.83h-10.64v14.68h10.64v-14.68Z"/>
    <path class="cls-6" d="M511.25,239.35h-10.64v14.68h10.64v-14.68Z"/>
    <path class="cls-6" d="M532.38,239.35h-10.64v14.68h10.64v-14.68Z"/>
    <path class="cls-6" d="M553.51,239.35h-10.64v14.68h10.64v-14.68Z"/>
    <path class="cls-8" d="M689.72,282.04c-.67,0-1.22-.54-1.22-1.22v-37.8c0-.67.54-1.22,1.22-1.22s1.22.54,1.22,1.22v37.8c0,.67-.54,1.22-1.22,1.22Z"/>
    <path class="cls-7" d="M689.72,244.24c4.8,0,8.7-3.89,8.7-8.7s-3.89-8.7-8.7-8.7-8.7,3.89-8.7,8.7,3.89,8.7,8.7,8.7Z"/>
    <path class="cls-1" d="M689.72,240.48c2.73,0,4.94-2.21,4.94-4.94s-2.21-4.94-4.94-4.94-4.94,2.21-4.94,4.94,2.21,4.94,4.94,4.94Z"/>
    <path class="cls-8" d="M686.09,257.72c3.83,5.37,3.09,12.44,3.09,12.44,0,0-6.94-1.61-10.76-6.98-3.82-5.37-3.09-12.44-3.09-12.44,0,0,6.94,1.61,10.76,6.98Z"/>
  </g>
</svg>