<?xml version="1.0" encoding="UTF-8"?>
<svg id="OBJECTS" xmlns="http://www.w3.org/2000/svg" viewBox="0 0 778.14 314.71">
  <defs>
    <style>
      .cls-1 {
        fill: #f7c23e;
      }

      .cls-1, .cls-2, .cls-3, .cls-4, .cls-5, .cls-6, .cls-7 {
        stroke-width: 0px;
      }

      .cls-2 {
        fill: #e19db7;
      }

      .cls-3 {
        fill: #b7e8ef;
      }

      .cls-4 {
        fill: #9e4a63;
      }

      .cls-5 {
        fill: #fff;
      }

      .cls-6 {
        fill: #f76757;
      }

      .cls-7 {
        fill: #04616e;
      }
    </style>
  </defs>
  <rect class="cls-2" x="-8.41" y="-11.84" width="799.3" height="338.38"/>
  <circle class="cls-4" cx="71.6" cy="54.15" r="34.43"/>
  <circle class="cls-4" cx="106.03" cy="254.47" r="40.52"/>
  <circle class="cls-4" cx="188.3" cy="134.69" r="36.26"/>
  <circle class="cls-4" cx="315.88" cy="240.6" r="36.26"/>
  <circle class="cls-4" cx="399.42" cy="74.75" r="37.33"/>
  <circle class="cls-4" cx="751.98" cy="240.6" r="36.26"/>
  <g>
    <path class="cls-7" d="M651.63,207.12c19.39,0,35.11-19.82,35.11-44.28s-15.72-44.28-35.11-44.28-35.11,19.82-35.11,44.28,15.72,44.28,35.11,44.28Z"/>
    <path class="cls-5" d="M651.63,288.44c-.83,0-1.5-.67-1.5-1.5v-143.06c0-.83.67-1.5,1.5-1.5s1.5.67,1.5,1.5v143.07c0,.83-.67,1.5-1.5,1.5h0Z"/>
    <path class="cls-5" d="M651.76,182.36c-.35,0-.7-.12-.99-.37-.62-.55-.69-1.49-.14-2.12l17.35-19.83c.54-.62,1.49-.69,2.12-.14.62.55.69,1.49.14,2.12l-17.35,19.83c-.3.34-.71.51-1.13.51Z"/>
    <path class="cls-5" d="M650.73,166.45c-.39,0-.78-.15-1.08-.45l-15.08-15.49c-.58-.59-.56-1.54.03-2.12s1.54-.57,2.12.03l15.08,15.49c.58.59.56,1.54-.03,2.12-.29.28-.67.42-1.05.42h0Z"/>
    <path class="cls-7" d="M529.63,236.8c19.39,0,35.11-19.82,35.11-44.28s-15.72-44.28-35.11-44.28-35.11,19.82-35.11,44.28,15.72,44.28,35.11,44.28Z"/>
    <path class="cls-5" d="M529.63,286.94c-.83,0-1.5-.67-1.5-1.5v-113.9c0-.83.67-1.5,1.5-1.5s1.5.67,1.5,1.5v113.9c0,.83-.67,1.5-1.5,1.5Z"/>
    <path class="cls-5" d="M529.49,212.03c-.42,0-.83-.17-1.13-.51l-17.35-19.83c-.55-.62-.48-1.57.14-2.12.62-.55,1.57-.48,2.12.14l17.35,19.83c.55.62.48,1.57-.14,2.12-.28.25-.64.37-.99.37Z"/>
    <path class="cls-5" d="M529.32,187.92c-.42,0-.83-.17-1.13-.51l-10.64-12.11c-.55-.62-.49-1.57.14-2.12.62-.55,1.57-.48,2.12.14l10.64,12.11c.55.62.49,1.57-.14,2.12-.29.25-.64.37-.99.37Z"/>
    <path class="cls-5" d="M530.18,211.35c-.38,0-.75-.14-1.05-.42-.59-.58-.61-1.53-.03-2.12l15.08-15.49c.58-.6,1.53-.61,2.12-.03.59.58.61,1.53.03,2.12l-15.08,15.49c-.29.3-.68.45-1.07.45Z"/>
    <path class="cls-7" d="M635.2,119.47h-61.27l9.26-44.69,21.2-.03,30.81,44.72Z"/>
    <path class="cls-6" d="M635.2,119.47h-21.18v166.23h21.18V119.47Z"/>
    <path class="cls-5" d="M552.74,285.69h61.28V119.46h-61.28v166.23Z"/>
    <path class="cls-5" d="M614.01,119.47h-61.27l30.46-44.72,30.81,44.72Z"/>
    <path class="cls-3" d="M578.87,133.23h-12.24v34.68h12.24v-34.68Z"/>
    <path class="cls-3" d="M600.14,133.23h-12.24v34.68h12.24v-34.68Z"/>
    <path class="cls-3" d="M578.87,232.6h-12.24v34.68h12.24v-34.68Z"/>
    <path class="cls-3" d="M600.14,232.6h-12.24v34.68h12.24v-34.68Z"/>
    <path class="cls-1" d="M578.87,182.91h-12.24v34.68h12.24v-34.68Z"/>
    <path class="cls-1" d="M600.14,182.91h-12.24v34.68h12.24v-34.68Z"/>
    <path class="cls-7" d="M639.36,287.19c-.55,0-1-.45-1-1v-37.54c0-.55.45-1,1-1s1,.45,1,1v37.54c0,.55-.45,1-1,1Z"/>
    <path class="cls-1" d="M639.36,249.87c4.77,0,8.64-3.87,8.64-8.64s-3.87-8.64-8.64-8.64-8.64,3.87-8.64,8.64,3.87,8.64,8.64,8.64Z"/>
    <path class="cls-6" d="M639.36,246.13c2.71,0,4.9-2.19,4.9-4.9s-2.19-4.9-4.9-4.9-4.9,2.19-4.9,4.9,2.19,4.9,4.9,4.9Z"/>
    <path class="cls-7" d="M636.36,264.1c3.46,4.86,2.79,11.27,2.79,11.27,0,0-6.28-1.46-9.74-6.32-3.46-4.86-2.79-11.27-2.79-11.27,0,0,6.28,1.46,9.74,6.32Z"/>
    <path class="cls-7" d="M647.22,260.51c-2.67,3.55-7.38,4.52-7.38,4.52,0,0-.37-4.79,2.3-8.35,2.67-3.55,7.38-4.52,7.38-4.52,0,0,.37,4.79-2.3,8.35Z"/>
  </g>
</svg>