<?xml version="1.0" encoding="UTF-8"?>
<svg id="OBJECTS" xmlns="http://www.w3.org/2000/svg" viewBox="0 0 778.14 314.71">
  <defs>
    <style>
      .cls-1 {
        fill: #f7c23e;
      }

      .cls-1, .cls-2, .cls-3, .cls-4, .cls-5, .cls-6, .cls-7 {
        stroke-width: 0px;
      }

      .cls-2 {
        fill: #4a959e;
      }

      .cls-3 {
        fill: #b7e8ef;
      }

      .cls-4 {
        fill: #9de0e1;
      }

      .cls-5 {
        fill: #fff;
      }

      .cls-6 {
        fill: #f76757;
      }

      .cls-7 {
        fill: #04616e;
      }
    </style>
  </defs>
  <circle class="cls-2" cx="677.87" cy="88.58" r="27.71"/>
  <rect class="cls-4" x="-8.41" y="-11.84" width="799.3" height="338.38"/>
  <circle class="cls-2" cx="71.6" cy="54.15" r="34.43"/>
  <circle class="cls-2" cx="106.03" cy="254.47" r="40.52"/>
  <circle class="cls-2" cx="188.3" cy="134.69" r="36.26"/>
  <circle class="cls-2" cx="315.88" cy="240.6" r="36.26"/>
  <circle class="cls-2" cx="399.42" cy="74.75" r="37.33"/>
  <circle class="cls-2" cx="542.13" cy="254.47" r="40.52"/>
  <circle class="cls-2" cx="751.98" cy="240.6" r="36.26"/>
  <g>
    <path class="cls-1" d="M500.41,185.72c16.12,0,29.19-16.48,29.19-36.82s-13.07-36.82-29.19-36.82-29.19,16.48-29.19,36.82,13.07,36.82,29.19,36.82Z"/>
    <path class="cls-5" d="M500.41,227.66c-.83,0-1.5-.67-1.5-1.5v-94.69c0-.83.67-1.5,1.5-1.5s1.5.67,1.5,1.5v94.69c0,.83-.67,1.5-1.5,1.5Z"/>
    <path class="cls-5" d="M500.15,145.33c-.42,0-.83-.17-1.13-.51l-8.84-10.06c-.55-.62-.49-1.57.14-2.12.62-.55,1.57-.49,2.12.14l8.84,10.06c.55.62.49,1.57-.14,2.12-.29.25-.64.37-.99.37Z"/>
    <path class="cls-5" d="M501.11,171.97c-.38,0-.77-.15-1.06-.44-.58-.59-.58-1.54,0-2.12l16.18-16.1c.59-.58,1.54-.58,2.12,0,.58.59.58,1.54,0,2.12l-16.18,16.1c-.29.29-.67.44-1.06.44Z"/>
    <path class="cls-7" d="M545.29,170.04c19.39,0,35.11-19.82,35.11-44.28s-15.72-44.28-35.11-44.28-35.11,19.82-35.11,44.28,15.72,44.28,35.11,44.28Z"/>
    <path class="cls-5" d="M545.29,220.19c-.83,0-1.5-.67-1.5-1.5v-113.9c0-.83.67-1.5,1.5-1.5s1.5.67,1.5,1.5v113.9c0,.83-.67,1.5-1.5,1.5Z"/>
    <path class="cls-5" d="M545.15,145.28c-.42,0-.83-.17-1.13-.51l-17.35-19.83c-.55-.62-.48-1.57.14-2.12.62-.55,1.57-.48,2.12.14l17.35,19.83c.55.62.48,1.57-.14,2.12-.28.25-.64.37-.99.37Z"/>
    <path class="cls-5" d="M544.98,121.16c-.42,0-.83-.17-1.13-.51l-10.64-12.11c-.55-.62-.49-1.57.14-2.12.62-.55,1.57-.48,2.12.14l10.64,12.11c.55.62.49,1.57-.14,2.12-.29.25-.64.37-.99.37Z"/>
    <path class="cls-5" d="M545.84,144.59c-.38,0-.75-.14-1.05-.42-.59-.58-.61-1.53-.03-2.12l15.08-15.49c.58-.6,1.53-.61,2.12-.03.59.58.61,1.53.03,2.12l-15.08,15.49c-.29.3-.68.45-1.07.45Z"/>
    <path class="cls-5" d="M470.59,294.99h47.05v-79.03h-47.05v79.03Z"/>
    <path class="cls-1" d="M619.72,215.95h-102.08v79.03h102.08v-79.03Z"/>
    <path class="cls-3" d="M619.98,215.95h-149.39l23.38-34.4,102.23-.1,23.78,34.5Z"/>
    <path class="cls-5" d="M517.63,215.95h-47.04l23.38-34.4,23.66,34.4Z"/>
    <path class="cls-7" d="M548.84,241.63h-12.96v20.85h12.96v-20.85Z"/>
    <path class="cls-7" d="M578.14,241.63h-12.96v20.85h12.96v-20.85Z"/>
    <path class="cls-6" d="M497.28,262.49h10.85v-20.85h-10.85v20.85Z"/>
    <path class="cls-6" d="M480.09,262.49h10.85v-20.85h-10.85v20.85Z"/>
    <path class="cls-1" d="M494.12,229.45c4.24,0,7.68-3.44,7.68-7.68s-3.44-7.68-7.68-7.68-7.68,3.44-7.68,7.68,3.44,7.68,7.68,7.68Z"/>
    <path class="cls-1" d="M532.25,201.06h162.46l-27.79-40.89-106.4-.11-28.27,41Z"/>
    <path class="cls-5" d="M694.71,201.06h-55.92v93.92h55.92v-93.92Z"/>
    <path class="cls-5" d="M638.8,201.06h55.91l-27.79-40.89-28.12,40.89Z"/>
    <path class="cls-6" d="M666.75,223.98c6.14,0,11.12-4.98,11.12-11.12s-4.98-11.12-11.12-11.12-11.12,4.98-11.12,11.12,4.98,11.12,11.12,11.12Z"/>
    <path class="cls-6" d="M532.25,294.98h106.54v-93.92h-106.54v93.92Z"/>
    <path class="cls-5" d="M560.52,214.4h-13.13v18.11h13.13v-18.11Z"/>
    <path class="cls-5" d="M586.58,214.4h-13.13v18.11h13.13v-18.11Z"/>
    <path class="cls-5" d="M612.65,214.4h-13.13v18.11h13.13v-18.11Z"/>
    <path class="cls-5" d="M560.52,245.87h-13.13v18.11h13.13v-18.11Z"/>
    <path class="cls-5" d="M586.58,245.87h-13.13v18.11h13.13v-18.11Z"/>
    <path class="cls-5" d="M612.65,245.87h-13.13v18.11h13.13v-18.11Z"/>
  </g>
</svg>