<?xml version="1.0" encoding="UTF-8"?>
<svg id="OBJECTS" xmlns="http://www.w3.org/2000/svg" viewBox="0 0 778.14 314.71">
  <defs>
    <style>
      .cls-1 {
        fill: #f7c23e;
      }

      .cls-1, .cls-2, .cls-3, .cls-4, .cls-5, .cls-6, .cls-7, .cls-8 {
        stroke-width: 0px;
      }

      .cls-2 {
        fill: #4a799e;
      }

      .cls-3 {
        fill: #55b9c6;
      }

      .cls-4 {
        fill: #b7e8ef;
      }

      .cls-5 {
        fill: #9dc9e1;
      }

      .cls-6 {
        fill: #fff;
      }

      .cls-7 {
        fill: #f76757;
      }

      .cls-8 {
        fill: #04616e;
      }
    </style>
  </defs>
  <rect class="cls-5" x="-8.41" y="-11.84" width="799.3" height="338.38"/>
  <circle class="cls-2" cx="71.6" cy="54.15" r="34.43"/>
  <circle class="cls-2" cx="106.03" cy="254.47" r="40.52"/>
  <circle class="cls-2" cx="188.3" cy="134.69" r="36.26"/>
  <circle class="cls-2" cx="315.88" cy="240.6" r="36.26"/>
  <circle class="cls-2" cx="399.42" cy="74.75" r="37.33"/>
  <circle class="cls-2" cx="751.98" cy="240.6" r="36.26"/>
  <g>
    <path class="cls-8" d="M675.33,206.03c19.39,0,35.11-19.82,35.11-44.28s-15.72-44.28-35.11-44.28-35.11,19.82-35.11,44.28,15.72,44.28,35.11,44.28Z"/>
    <path class="cls-6" d="M675.33,292.18c-.83,0-1.5-.67-1.5-1.5v-147.9c0-.83.67-1.5,1.5-1.5s1.5.67,1.5,1.5v147.9c0,.83-.67,1.5-1.5,1.5Z"/>
    <path class="cls-6" d="M675.47,181.26c-.35,0-.7-.12-.99-.37-.62-.55-.69-1.49-.14-2.12l17.35-19.83c.54-.62,1.49-.69,2.12-.14.62.55.69,1.49.14,2.12l-17.35,19.83c-.3.34-.71.51-1.13.51Z"/>
    <path class="cls-6" d="M674.44,165.36c-.39,0-.78-.15-1.08-.45l-15.08-15.49c-.58-.59-.56-1.54.03-2.12s1.54-.57,2.12.03l15.08,15.49c.58.59.56,1.54-.03,2.12-.29.28-.67.42-1.05.42h.01Z"/>
    <path class="cls-1" d="M655.1,215.21c16.12,0,29.19-16.48,29.19-36.82s-13.07-36.82-29.19-36.82-29.19,16.48-29.19,36.82,13.07,36.82,29.19,36.82Z"/>
    <path class="cls-6" d="M655.1,292.93c-.83,0-1.5-.67-1.5-1.5v-130.47c0-.83.67-1.5,1.5-1.5s1.5.67,1.5,1.5v130.47c0,.83-.67,1.5-1.5,1.5Z"/>
    <path class="cls-6" d="M654.85,174.82c-.42,0-.83-.17-1.13-.51l-8.84-10.06c-.55-.62-.49-1.57.14-2.12.62-.55,1.57-.49,2.12.14l8.84,10.06c.55.62.49,1.57-.14,2.12-.29.25-.64.37-.99.37Z"/>
    <path class="cls-6" d="M655.8,201.46c-.38,0-.77-.15-1.06-.44-.58-.59-.58-1.54,0-2.12l16.18-16.1c.59-.58,1.54-.58,2.12,0,.58.59.58,1.54,0,2.12l-16.18,16.1c-.29.29-.67.44-1.06.44Z"/>
    <path class="cls-8" d="M493.02,292.73c-.83,0-1.5-.67-1.5-1.5v-46.63c0-.83.67-1.5,1.5-1.5s1.5.67,1.5,1.5v46.63c0,.83-.67,1.5-1.5,1.5Z"/>
    <path class="cls-7" d="M493.02,246.12c5.93,0,10.73-4.8,10.73-10.73s-4.8-10.73-10.73-10.73-10.73,4.8-10.73,10.73,4.8,10.73,10.73,10.73Z"/>
    <path class="cls-1" d="M493.02,241.48c3.36,0,6.09-2.73,6.09-6.09s-2.73-6.09-6.09-6.09-6.09,2.73-6.09,6.09,2.73,6.09,6.09,6.09Z"/>
    <path class="cls-8" d="M489.18,256.08c4.72,6.62,3.81,15.35,3.81,15.35,0,0-8.56-1.99-13.27-8.61-4.72-6.62-3.81-15.35-3.81-15.35,0,0,8.56,1.99,13.27,8.61Z"/>
    <path class="cls-4" d="M639.75,175.15h-133.17v117.03h133.17v-117.03Z"/>
    <path class="cls-3" d="M639.75,175.15h-133.17v7.73h133.17v-7.73Z"/>
    <path class="cls-6" d="M639.75,175.15h-60.04v117.03h60.04v-117.03Z"/>
    <path class="cls-6" d="M579.72,175.15h60.03l-30.26-50.95-29.77,50.95Z"/>
    <path class="cls-1" d="M605.42,185.83h-15v31.81h15v-31.81Z"/>
    <path class="cls-1" d="M629.05,185.83h-15v31.81h15v-31.81Z"/>
    <path class="cls-1" d="M605.42,233.67h-15v31.81h15v-31.81Z"/>
    <path class="cls-1" d="M629.05,233.67h-15v31.81h15v-31.81Z"/>
    <path class="cls-7" d="M579.72,175.15h-73.14l29-50.95h73.91l-29.77,50.95Z"/>
    <path class="cls-1" d="M574.39,115.75h-28.97v28.37h28.97v-28.37Z"/>
    <path class="cls-6" d="M574.39,115.75h-6.98v28.37h6.98v-28.37Z"/>
  </g>
</svg>