<?xml version="1.0" encoding="UTF-8"?>
<svg id="OBJECTS" xmlns="http://www.w3.org/2000/svg" viewBox="0 0 778.14 314.71">
  <defs>
    <style>
      .cls-1 {
        fill: #f7c23e;
      }

      .cls-1, .cls-2, .cls-3, .cls-4, .cls-5, .cls-6, .cls-7, .cls-8 {
        stroke-width: 0px;
      }

      .cls-2 {
        fill: #55b9c6;
      }

      .cls-3 {
        fill: #d3463c;
      }

      .cls-4 {
        fill: #b39ee2;
      }

      .cls-5 {
        fill: #68499f;
      }

      .cls-6 {
        fill: #fff;
      }

      .cls-7 {
        fill: #f76757;
      }

      .cls-8 {
        fill: #04616e;
      }
    </style>
  </defs>
  <rect class="cls-4" x="-8.41" y="-11.84" width="799.3" height="338.38"/>
  <circle class="cls-5" cx="71.6" cy="54.15" r="34.43"/>
  <circle class="cls-5" cx="106.03" cy="254.47" r="40.52"/>
  <circle class="cls-5" cx="188.3" cy="134.69" r="36.26"/>
  <circle class="cls-5" cx="315.88" cy="240.6" r="36.26"/>
  <circle class="cls-5" cx="399.42" cy="74.75" r="37.33"/>
  <circle class="cls-5" cx="751.98" cy="240.6" r="36.26"/>
  <g>
    <path class="cls-8" d="M674.97,201.99c19.39,0,35.11-19.82,35.11-44.28s-15.72-44.28-35.11-44.28-35.11,19.82-35.11,44.28,15.72,44.28,35.11,44.28Z"/>
    <path class="cls-6" d="M674.97,283.31c-.83,0-1.5-.67-1.5-1.5v-143.07c0-.83.67-1.5,1.5-1.5s1.5.67,1.5,1.5v143.07c0,.83-.67,1.5-1.5,1.5Z"/>
    <path class="cls-6" d="M675.11,177.22c-.35,0-.7-.12-.99-.37-.62-.55-.69-1.49-.14-2.12l17.35-19.83c.54-.62,1.49-.69,2.12-.14.62.55.69,1.49.14,2.12l-17.35,19.83c-.3.34-.71.51-1.13.51Z"/>
    <path class="cls-6" d="M674.07,161.32c-.39,0-.78-.15-1.08-.45l-15.08-15.49c-.58-.59-.56-1.54.03-2.12.59-.58,1.54-.57,2.12.03l15.08,15.49c.58.59.56,1.54-.03,2.12-.29.28-.67.42-1.05.42h0Z"/>
    <path class="cls-8" d="M490.75,285.85c-.55,0-1-.45-1-1v-37.54c0-.55.45-1,1-1s1,.45,1,1v37.54c0,.55-.45,1-1,1Z"/>
    <path class="cls-6" d="M490.75,248.53c4.77,0,8.64-3.87,8.64-8.64s-3.87-8.64-8.64-8.64-8.64,3.87-8.64,8.64,3.87,8.64,8.64,8.64Z"/>
    <path class="cls-7" d="M490.75,244.79c2.71,0,4.9-2.19,4.9-4.9s-2.19-4.9-4.9-4.9-4.9,2.19-4.9,4.9,2.19,4.9,4.9,4.9Z"/>
    <path class="cls-8" d="M487.75,262.76c3.46,4.86,2.79,11.27,2.79,11.27,0,0-6.28-1.46-9.74-6.32-3.46-4.86-2.79-11.27-2.79-11.27,0,0,6.28,1.46,9.74,6.32Z"/>
    <path class="cls-8" d="M498.61,259.17c-2.67,3.55-7.38,4.52-7.38,4.52,0,0-.37-4.79,2.3-8.35,2.67-3.55,7.38-4.52,7.38-4.52,0,0,.37,4.79-2.3,8.35Z"/>
    <path class="cls-8" d="M694.72,284.39c-.83,0-1.5-.67-1.5-1.5v-46.63c0-.83.67-1.5,1.5-1.5s1.5.67,1.5,1.5v46.63c0,.83-.67,1.5-1.5,1.5Z"/>
    <path class="cls-7" d="M694.72,237.78c5.93,0,10.73-4.8,10.73-10.73s-4.8-10.73-10.73-10.73-10.73,4.8-10.73,10.73,4.8,10.73,10.73,10.73Z"/>
    <path class="cls-1" d="M694.72,233.14c3.36,0,6.09-2.73,6.09-6.09s-2.73-6.09-6.09-6.09-6.09,2.73-6.09,6.09,2.73,6.09,6.09,6.09Z"/>
    <path class="cls-8" d="M690.89,247.74c4.72,6.62,3.81,15.35,3.81,15.35,0,0-8.56-1.99-13.27-8.61-4.72-6.62-3.81-15.35-3.81-15.35,0,0,8.56,1.99,13.27,8.61Z"/>
    <path class="cls-6" d="M657.76,91.52h-149.21v190.21h149.21V91.52Z"/>
    <path class="cls-8" d="M657.76,269.45h-149.21v12.28h149.21v-12.28Z"/>
    <path class="cls-7" d="M570.22,200.41h-35.77v71.93h35.77v-71.93Z"/>
    <path class="cls-3" d="M565.26,267.38v-62.02h-25.87v62.02h25.87Z"/>
    <path class="cls-3" d="M574.27,272.34h-43.87v5.93h43.87v-5.93Z"/>
    <path class="cls-7" d="M577.57,278.26h-50.47v5.94h50.47v-5.94Z"/>
    <path class="cls-8" d="M661.99,88.55h-157.68v5.94h157.68v-5.94Z"/>
    <path class="cls-2" d="M657.76,94.49h-149.21v2.97h149.21v-2.97Z"/>
    <path class="cls-1" d="M553.67,122.22h-19.22v49.94h19.22v-49.94Z"/>
    <path class="cls-1" d="M592.76,122.22h-19.22v49.94h19.22v-49.94Z"/>
    <path class="cls-1" d="M631.86,122.22h-19.22v49.94h19.22v-49.94Z"/>
    <path class="cls-1" d="M631.86,200.41h-52.24v49.94h52.24v-49.94Z"/>
    <path class="cls-1" d="M549.82,127.22h-15.37v44.95h15.37v-44.95Z"/>
    <path class="cls-1" d="M588.92,127.22h-15.38v44.95h15.38v-44.95Z"/>
    <path class="cls-1" d="M628.02,127.22h-15.38v44.95h15.38v-44.95Z"/>
    <path class="cls-1" d="M621.41,205.41h-41.79v44.95h41.79v-44.95Z"/>
  </g>
</svg>