<svg width="2639" height="433" viewBox="0 0 2639 433" fill="none" xmlns="http://www.w3.org/2000/svg">
<g clip-path="url(#clip0_48_1181)">
<rect width="2639" height="433" fill="white"/>
<path d="M2639 0H0V433H2639V0Z" fill="#55B9C6"/>
<path d="M2490.02 188.275C2519.85 188.275 2544.04 157.769 2544.04 120.138C2544.04 82.5062 2519.85 52 2490.02 52C2460.18 52 2436 82.5062 2436 120.138C2436 157.769 2460.18 188.275 2490.02 188.275Z" fill="#F7C23E"/>
<path d="M2490.02 332.101C2488.48 332.101 2487.24 330.861 2487.24 329.325V87.882C2487.24 86.3461 2488.48 85.1062 2490.02 85.1062C2491.55 85.1062 2492.79 86.3461 2492.79 87.882V329.325C2492.79 330.861 2491.55 332.101 2490.02 332.101Z" fill="white"/>
<path d="M2489.55 113.531C2488.78 113.531 2488.02 113.217 2487.46 112.587L2471.1 93.9707C2470.09 92.8233 2470.2 91.0653 2471.36 90.0475C2472.51 89.0297 2474.27 89.1407 2475.29 90.3066L2491.65 108.923C2492.66 110.071 2492.55 111.829 2491.39 112.846C2490.85 113.309 2490.2 113.531 2489.55 113.531Z" fill="white"/>
<path d="M2491.31 162.83C2490.61 162.83 2489.89 162.552 2489.35 162.016C2488.28 160.924 2488.28 159.166 2489.35 158.092L2519.29 128.298C2520.38 127.225 2522.14 127.225 2523.22 128.298C2524.29 129.39 2524.29 131.148 2523.22 132.222L2493.27 162.016C2492.74 162.552 2492.03 162.83 2491.31 162.83Z" fill="white"/>
<path d="M1911.97 235.886C1947.86 235.886 1976.95 199.199 1976.95 153.943C1976.95 108.687 1947.86 72 1911.97 72C1876.09 72 1847 108.687 1847 153.943C1847 199.199 1876.09 235.886 1911.97 235.886Z" fill="#04616E"/>
<path d="M1911.97 328.673C1910.44 328.673 1909.2 327.433 1909.2 325.897V115.118C1909.2 113.582 1910.44 112.342 1911.97 112.342C1913.51 112.342 1914.75 113.582 1914.75 115.118V325.897C1914.75 327.433 1913.51 328.673 1911.97 328.673Z" fill="white"/>
<path d="M1911.71 190.047C1910.94 190.047 1910.18 189.733 1909.62 189.103L1877.52 152.407C1876.5 151.259 1876.63 149.501 1877.77 148.484C1878.92 147.466 1880.68 147.595 1881.7 148.743L1913.81 185.439C1914.82 186.587 1914.69 188.345 1913.55 189.362C1913.03 189.825 1912.36 190.047 1911.71 190.047Z" fill="white"/>
<path d="M1911.4 145.43C1910.62 145.43 1909.86 145.116 1909.31 144.487L1889.62 122.076C1888.6 120.929 1888.71 119.171 1889.88 118.153C1891.02 117.135 1892.78 117.265 1893.8 118.412L1913.49 140.822C1914.51 141.97 1914.4 143.728 1913.23 144.746C1912.7 145.208 1912.05 145.43 1911.4 145.43Z" fill="white"/>
<path d="M1912.99 188.789C1912.29 188.789 1911.6 188.53 1911.05 188.012C1909.96 186.938 1909.92 185.18 1910.99 184.088L1938.9 155.423C1939.97 154.313 1941.73 154.294 1942.82 155.368C1943.91 156.441 1943.95 158.199 1942.88 159.291L1914.97 187.956C1914.43 188.511 1913.71 188.789 1912.99 188.789Z" fill="white"/>
<path d="M170.039 257.58C207.616 257.58 238.079 219.101 238.079 171.635C238.079 124.169 207.616 85.6907 170.039 85.6907C132.462 85.6907 102 124.169 102 171.635C102 219.101 132.462 257.58 170.039 257.58Z" fill="#F7C23E"/>
<path d="M170.039 355.475C168.105 355.475 166.543 353.911 166.543 351.974V130.95C166.543 129.013 168.105 127.449 170.039 127.449C171.974 127.449 173.536 129.013 173.536 130.95V351.974C173.536 353.911 171.974 355.475 170.039 355.475Z" fill="white"/>
<path d="M169.433 163.302C168.454 163.302 167.499 162.905 166.8 162.112L146.194 138.63C144.912 137.183 145.052 134.965 146.521 133.681C147.966 132.398 150.18 132.538 151.462 134.008L172.067 157.49C173.349 158.937 173.21 161.155 171.741 162.438C171.065 163.022 170.249 163.302 169.433 163.302Z" fill="white"/>
<path d="M171.671 225.485C170.785 225.485 169.876 225.135 169.2 224.458C167.848 223.081 167.848 220.863 169.2 219.509L206.914 181.929C208.29 180.575 210.504 180.575 211.856 181.929C213.208 183.306 213.208 185.524 211.856 186.877L174.142 224.458C173.466 225.135 172.58 225.485 171.671 225.485Z" fill="white"/>
<path d="M281.838 220.98C327.036 220.98 363.677 174.705 363.677 117.622C363.677 60.5396 327.036 14.2649 281.838 14.2649C236.64 14.2649 200 60.5396 200 117.622C200 174.705 236.64 220.98 281.838 220.98Z" fill="#04616E"/>
<path d="M281.838 338.039C279.904 338.039 278.342 336.475 278.342 334.538V68.6746C278.342 66.7372 279.904 65.1733 281.838 65.1733C283.773 65.1733 285.335 66.7372 285.335 68.6746V334.538C285.335 336.475 283.773 338.039 281.838 338.039Z" fill="white"/>
<path d="M281.512 163.186C280.533 163.186 279.577 162.789 278.878 161.995L238.437 115.708C237.155 114.261 237.318 112.044 238.763 110.76C240.208 109.476 242.422 109.639 243.704 111.087L284.146 157.373C285.428 158.821 285.265 161.038 283.819 162.322C283.167 162.905 282.328 163.186 281.512 163.186Z" fill="white"/>
<path d="M281.116 106.885C280.137 106.885 279.181 106.488 278.482 105.695L253.681 77.4278C252.399 75.9806 252.539 73.7631 254.007 72.4793C255.452 71.1955 257.667 71.3589 258.949 72.8061L283.75 101.073C285.032 102.52 284.892 104.738 283.423 106.021C282.747 106.605 281.931 106.885 281.116 106.885Z" fill="white"/>
<path d="M283.12 161.575C282.235 161.575 281.372 161.248 280.673 160.595C279.298 159.241 279.251 157.023 280.603 155.646L315.753 119.49C317.105 118.089 319.319 118.066 320.695 119.42C322.07 120.774 322.116 122.991 320.765 124.368L285.614 160.525C284.938 161.225 284.029 161.575 283.12 161.575Z" fill="white"/>
<path d="M2639 263H0V433H2639V263Z" fill="#04616E"/>
<path d="M364 401H473.584V216.667H364V401Z" fill="white"/>
<path d="M711.34 216.644H473.584V400.977H711.34V216.644Z" fill="#F7C23E"/>
<path d="M711.945 216.644H364L418.455 136.408L656.559 136.174L711.945 216.644Z" fill="#B7E8EF"/>
<path d="M473.561 216.644H364L418.455 136.407L473.561 216.644Z" fill="white"/>
<path d="M546.253 276.541H516.067V325.172H546.253V276.541Z" fill="#04616E"/>
<path d="M614.495 276.541H584.31V325.172H614.495V276.541Z" fill="#04616E"/>
<path d="M426.164 325.196H451.435V276.564H426.164V325.196Z" fill="#F76757"/>
<path d="M386.127 325.196H411.397V276.564H386.127V325.196Z" fill="#F76757"/>
<path d="M418.804 248.132C428.683 248.132 436.692 240.112 436.692 230.219C436.692 220.325 428.683 212.305 418.804 212.305C408.925 212.305 400.917 220.325 400.917 230.219C400.917 240.112 408.925 248.132 418.804 248.132Z" fill="#F7C23E"/>
<path d="M507.613 181.913H886L821.274 86.5397L573.457 86.2832L507.613 181.913Z" fill="#F7C23E"/>
<path d="M886 181.914H755.756V400.977H886V181.914Z" fill="white"/>
<path d="M755.78 181.913H886L821.274 86.5398L755.78 181.913Z" fill="white"/>
<path d="M820.878 235.373C835.182 235.373 846.778 223.761 846.778 209.436C846.778 195.112 835.182 183.5 820.878 183.5C806.574 183.5 794.979 195.112 794.979 209.436C794.979 223.761 806.574 235.373 820.878 235.373Z" fill="#F76757"/>
<path d="M507.613 400.976L755.756 400.976V181.913L507.613 181.913V400.976Z" fill="#F76757"/>
<path d="M573.457 213.028H542.876V255.269H573.457V213.028Z" fill="white"/>
<path d="M634.154 213.028H603.573V255.269H634.154V213.028Z" fill="white"/>
<path d="M694.874 213.028H664.292V255.269H694.874V213.028Z" fill="white"/>
<path d="M573.457 286.43H542.876V328.671H573.457V286.43Z" fill="white"/>
<path d="M634.154 286.43H603.573V328.671H634.154V286.43Z" fill="white"/>
<path d="M694.874 286.43H664.292V328.671H694.874V286.43Z" fill="white"/>
<path d="M2169.34 104.159H2055.95L2073.09 21.4579L2112.32 21.4023L2169.34 104.159Z" fill="#04616E"/>
<path d="M2169.34 104.159H2130.14V411.778H2169.34V104.159Z" fill="#F76757"/>
<path d="M2016.74 411.76H2130.14V104.141H2016.74V411.76Z" fill="white"/>
<path d="M2130.12 104.159H2016.74L2073.11 21.4023L2130.12 104.159Z" fill="white"/>
<path d="M2065.09 129.623H2042.44V193.801H2065.09V129.623Z" fill="#B7E8EF"/>
<path d="M2104.46 129.623H2081.8V193.801H2104.46V129.623Z" fill="#B7E8EF"/>
<path d="M2065.09 313.513H2042.44V377.691H2065.09V313.513Z" fill="#B7E8EF"/>
<path d="M2104.46 313.513H2081.8V377.691H2104.46V313.513Z" fill="#B7E8EF"/>
<path d="M2065.09 221.559H2042.44V285.737H2065.09V221.559Z" fill="#F7C23E"/>
<path d="M2104.46 221.559H2081.8V285.737H2104.46V221.559Z" fill="#F7C23E"/>
<path d="M2416.37 194.244H2169.93V410.815H2416.37V194.244Z" fill="#B7E8EF"/>
<path d="M2416.37 194.244H2169.93V208.549H2416.37V194.244Z" fill="#55B9C6"/>
<path d="M2416.37 194.244H2305.26V410.815H2416.37V194.244Z" fill="white"/>
<path d="M2305.28 194.244H2416.37L2360.37 99.958L2305.28 194.244Z" fill="white"/>
<path d="M2352.84 214.009H2325.08V272.875H2352.84V214.009Z" fill="#F7C23E"/>
<path d="M2396.57 214.009H2368.81V272.875H2396.57V214.009Z" fill="#F7C23E"/>
<path d="M2352.84 302.539H2325.08V361.406H2352.84V302.539Z" fill="#F7C23E"/>
<path d="M2396.57 302.539H2368.81V361.406H2396.57V302.539Z" fill="#F7C23E"/>
<path d="M2305.28 194.244H2169.93L2223.59 99.958H2360.37L2305.28 194.244Z" fill="#F76757"/>
<path d="M2295.41 84.3215H2241.8V136.822H2295.41V84.3215Z" fill="#F7C23E"/>
<path d="M2295.42 84.3215H2282.5V136.822H2295.42V84.3215Z" fill="white"/>
<path d="M1141.51 332.56C1141.51 338.02 1139.17 342.64 1134.49 345.04L1140.67 358.12C1140.97 358.84 1141.39 359.56 1141.39 360.46C1141.39 362.56 1139.71 364.72 1136.95 364.72C1135.03 364.72 1133.65 363.58 1132.99 361.96L1126.39 346.78H1117.51V360.46C1117.51 362.8 1115.59 364.72 1113.25 364.72C1110.85 364.72 1108.99 362.8 1108.99 360.46V322.96C1108.99 320.62 1110.85 318.7 1113.25 318.7H1126.27C1136.59 318.7 1141.51 324.7 1141.51 332.56ZM1123.93 325.84H1117.51V339.7H1124.59C1130.77 339.7 1132.93 337.24 1132.93 332.74C1132.93 327.34 1129.93 325.84 1123.93 325.84ZM1180.61 325.9H1163.45V337.48H1178.69C1180.73 337.48 1182.35 338.98 1182.35 341.02C1182.35 343 1180.73 344.62 1178.69 344.62H1163.45V356.8H1180.67C1182.71 356.8 1184.33 358.36 1184.33 360.4C1184.33 362.38 1182.71 364 1180.67 364H1159.19C1156.79 364 1154.93 362.08 1154.93 359.74V322.96C1154.93 320.62 1156.79 318.7 1159.19 318.7H1180.61C1182.65 318.7 1184.27 320.32 1184.27 322.3C1184.27 324.28 1182.65 325.9 1180.61 325.9ZM1223.7 361.6L1205.28 332.5L1205.4 346.84V360.46C1205.4 362.8 1203.66 364.72 1201.32 364.72C1198.92 364.72 1197.42 362.8 1197.42 360.46V322.12C1197.42 320.02 1198.86 317.86 1201.74 317.86C1204.02 317.86 1205.4 318.94 1206.66 320.92L1225.08 349.66L1225.02 334.6V322.12C1225.02 319.78 1226.58 317.86 1228.92 317.86C1231.32 317.86 1233 319.78 1233 322.12V360.46C1233 362.56 1231.5 364.72 1228.56 364.72C1226.28 364.72 1225.02 363.58 1223.7 361.6ZM1276.25 326.02H1266.17V360.46C1266.17 362.8 1264.31 364.72 1261.91 364.72C1259.57 364.72 1257.65 362.8 1257.65 360.46V326.02H1247.39C1245.35 326.02 1243.73 324.34 1243.73 322.36C1243.73 320.38 1245.35 318.7 1247.39 318.7H1276.25C1278.23 318.7 1279.85 320.38 1279.85 322.36C1279.85 324.34 1278.23 326.02 1276.25 326.02ZM1343.85 322.12V360.46C1343.85 362.86 1341.93 364.72 1339.59 364.72C1337.19 364.72 1335.33 362.86 1335.33 360.46V344.44H1316.07V360.46C1316.07 362.86 1314.15 364.72 1311.81 364.72C1309.41 364.72 1307.55 362.86 1307.55 360.46V322.12C1307.55 319.78 1309.41 317.86 1311.81 317.86C1314.15 317.86 1316.07 319.78 1316.07 322.12V336.88H1335.33V322.12C1335.33 319.78 1337.19 317.86 1339.59 317.86C1341.93 317.86 1343.85 319.78 1343.85 322.12ZM1357.32 344.56V338.56C1357.32 324.94 1364.82 317.86 1375.92 317.86C1387.02 317.86 1394.64 324.94 1394.64 338.56V344.56C1394.64 358.18 1387.02 364.9 1375.92 364.9C1364.82 364.9 1357.32 358.18 1357.32 344.56ZM1365.9 338.14V344.98C1365.9 352.96 1368.72 357.7 1375.92 357.7C1383.18 357.7 1386.06 352.96 1386.06 344.98V338.14C1386.06 329.98 1383 325.06 1375.92 325.06C1369.2 325.06 1365.9 329.98 1365.9 338.14ZM1435.71 344.74V322.12C1435.71 319.78 1437.63 317.86 1439.97 317.86C1442.31 317.86 1444.23 319.78 1444.23 322.12V345.1C1444.23 358.72 1437.03 364.9 1425.93 364.9C1414.83 364.9 1407.81 358.72 1407.81 345.1V322.12C1407.81 319.78 1409.79 317.86 1412.13 317.86C1414.47 317.86 1416.39 319.78 1416.39 322.12V344.74C1416.39 353.56 1419.15 357.46 1425.93 357.46C1432.17 357.46 1435.71 354.22 1435.71 344.74ZM1457.3 358.72C1457.3 356.92 1458.32 355.06 1460.84 355.06C1462.82 355.06 1466.18 357.46 1471.58 357.46C1477.58 357.46 1480.52 355.36 1480.52 350.86C1480.52 347.14 1478.42 345.7 1472.84 345.04L1468.34 344.44C1460.72 343.42 1456.88 338.86 1456.88 331.78C1456.88 322.24 1464.38 317.98 1473.74 317.98C1477.34 317.98 1482.8 318.76 1485.5 320.8C1486.58 321.58 1487.3 322.6 1487.3 323.86C1487.3 325.9 1485.74 327.52 1483.82 327.52C1483.16 327.52 1482.44 327.22 1481.66 326.92C1479.74 326.26 1477.28 325.18 1473.92 325.18C1468.22 325.18 1465.28 327.04 1465.28 331.42C1465.28 335.2 1467.44 336.64 1472.3 337.24L1476.5 337.78C1484.66 338.8 1489.04 343.18 1489.04 350.62C1489.04 360.52 1481.24 364.72 1471.1 364.72C1467.5 364.72 1462.4 364 1459.52 362.14C1458.2 361.3 1457.3 360.16 1457.3 358.72ZM1527.44 325.9H1510.28V337.48H1525.52C1527.56 337.48 1529.18 338.98 1529.18 341.02C1529.18 343 1527.56 344.62 1525.52 344.62H1510.28V356.8H1527.5C1529.54 356.8 1531.16 358.36 1531.16 360.4C1531.16 362.38 1529.54 364 1527.5 364H1506.02C1503.62 364 1501.76 362.08 1501.76 359.74V322.96C1501.76 320.62 1503.62 318.7 1506.02 318.7H1527.44C1529.48 318.7 1531.1 320.32 1531.1 322.3C1531.1 324.28 1529.48 325.9 1527.44 325.9Z" fill="white"/>
<path d="M1058.08 151.72C1065.44 150.2 1076.48 147.56 1086.72 144.84L1087.84 153.72C1078.56 156.28 1068.4 158.92 1060.56 160.92L1058.08 151.72ZM1059.04 126.28H1087.04V135.24H1059.04V126.28ZM1069.04 111.08H1078.4V175.48C1078.4 180.04 1077.52 182.44 1074.88 183.88C1072.16 185.32 1068.32 185.56 1062.64 185.56C1062.32 183.16 1061.12 179.24 1060 176.84C1063.12 177 1066.48 176.92 1067.52 176.92C1068.64 176.92 1069.04 176.52 1069.04 175.4V111.08ZM1087.92 132.36L1131.68 128.12L1132.64 137.08L1088.88 141.56L1087.92 132.36ZM1109.76 116.6L1117.12 111.88C1120.64 115.32 1125.52 120.28 1127.92 123.48L1120.16 128.84C1118 125.56 1113.28 120.28 1109.76 116.6ZM1096.96 111.48H1106.8C1107.36 146.12 1112.16 172.52 1122.64 174.04C1124.48 174.28 1125.52 170.36 1126 161.72C1127.92 163.8 1132.16 166.44 1134.08 167.32C1131.92 182.28 1127.6 185.96 1123.12 185.56C1103.44 183.56 1098.4 155.08 1096.96 111.48ZM1121.28 140.2L1129.2 145C1121.92 160.92 1107.68 176.2 1092.08 183.56C1090.32 181.08 1087.12 178.04 1084.4 176.12C1100.64 169.8 1114.64 155.32 1121.28 140.2ZM1181.76 115.08H1214.24V123.96H1181.76V115.08ZM1179.04 142.92H1223.2V151.96H1179.04V142.92ZM1195.92 133.56H1205.6V175.56C1205.6 180.36 1204.64 182.92 1201.52 184.44C1198.32 185.88 1193.92 186.2 1188 186.12C1187.52 183.48 1185.92 179.32 1184.64 176.76C1188.72 176.92 1192.88 177 1194.24 176.92C1195.52 176.84 1195.92 176.52 1195.92 175.4V133.56ZM1210.8 115.08H1213.12L1215.12 114.6L1221.36 119.32C1216.64 126.28 1209.84 134.76 1203.6 140.04C1202.32 138.36 1199.68 135.72 1198.16 134.44C1202.88 129.88 1208.4 121.96 1210.8 117.16V115.08ZM1148.56 127H1174.4V135.88H1148.56V127ZM1159.28 111.08L1168.32 112.04C1165.28 129.08 1160.64 150.52 1156.88 164.92L1149.04 160.76C1152.48 148.12 1156.8 127 1159.28 111.08ZM1153.2 159.4L1158.48 152.68C1166.8 157.88 1177.36 165.64 1182 171.64L1176.24 179.4C1171.76 173.32 1161.6 164.92 1153.2 159.4ZM1171.12 127H1172.64L1174.32 126.76L1180 127.72C1178.16 158.92 1170.4 176.6 1154.56 186.44C1153.28 184.12 1150.72 180.68 1148.8 178.84C1162.4 171.72 1169.52 154.04 1171.12 128.76V127ZM1246.72 126.76H1256.16V144.84C1256.16 157.08 1254.56 174.44 1245.04 185.32C1243.36 183.72 1239.2 181 1236.8 180.04C1245.84 169.96 1246.72 155.4 1246.72 144.76V126.76ZM1251.68 126.76H1304.32V145.72H1251.68V138.76H1294.88V133.72H1251.68V126.76ZM1241.44 114.76H1309.2V123.32H1241.44V114.76ZM1250.96 150.6H1311.2V158.12H1250.96V150.6ZM1272.88 162.68H1296.8V169.96H1272.88V162.68ZM1274 144.84H1283.52V154.44H1274V144.84ZM1294.8 162.68H1304.32C1304.32 162.68 1304.24 164.92 1304.08 165.96C1303.28 176.52 1302.16 181.48 1300.16 183.64C1298.4 185.4 1296.32 185.96 1293.84 186.2C1291.6 186.44 1287.52 186.44 1283.2 186.28C1283.04 183.88 1282.08 180.52 1280.72 178.36C1284.32 178.68 1287.92 178.76 1289.44 178.76C1290.72 178.76 1291.44 178.6 1292.24 177.96C1293.36 176.92 1294.16 173 1294.8 163.8V162.68ZM1269.52 154.84H1279.04C1277.68 169.72 1274 180.36 1254.88 186.2C1254 183.96 1251.6 180.52 1249.68 178.76C1266.16 174.36 1268.4 166.2 1269.52 154.84ZM1352.48 126.52H1401.44V135.64H1352.48V126.52ZM1355.12 149.56H1399.2V158.68H1355.12V149.56ZM1350.72 174.52H1402.64V183.64H1350.72V174.52ZM1372.08 129.32H1381.84V180.36H1372.08V129.32ZM1362 117.72L1368.32 110.92C1374.24 114.04 1382.48 119 1386.56 122.6L1379.68 130.28C1376.08 126.6 1368 121.24 1362 117.72ZM1345.12 111.24L1354.08 114.12C1348.64 127.72 1339.84 142.04 1330.72 151.08C1329.92 148.84 1327.36 143.56 1325.76 141.24C1333.36 134.04 1340.8 122.68 1345.12 111.24ZM1337.44 133.4L1346.48 124.28L1346.56 124.36V185.96H1337.44V133.4ZM1450.56 115.08H1483.04V123.96H1450.56V115.08ZM1447.84 142.92H1492V151.96H1447.84V142.92ZM1464.72 133.56H1474.4V175.56C1474.4 180.36 1473.44 182.92 1470.32 184.44C1467.12 185.88 1462.72 186.2 1456.8 186.12C1456.32 183.48 1454.72 179.32 1453.44 176.76C1457.52 176.92 1461.68 177 1463.04 176.92C1464.32 176.84 1464.72 176.52 1464.72 175.4V133.56ZM1479.6 115.08H1481.92L1483.92 114.6L1490.16 119.32C1485.44 126.28 1478.64 134.76 1472.4 140.04C1471.12 138.36 1468.48 135.72 1466.96 134.44C1471.68 129.88 1477.2 121.96 1479.6 117.16V115.08ZM1417.36 127H1443.2V135.88H1417.36V127ZM1428.08 111.08L1437.12 112.04C1434.08 129.08 1429.44 150.52 1425.68 164.92L1417.84 160.76C1421.28 148.12 1425.6 127 1428.08 111.08ZM1422 159.4L1427.28 152.68C1435.6 157.88 1446.16 165.64 1450.8 171.64L1445.04 179.4C1440.56 173.32 1430.4 164.92 1422 159.4ZM1439.92 127H1441.44L1443.12 126.76L1448.8 127.72C1446.96 158.92 1439.2 176.6 1423.36 186.44C1422.08 184.12 1419.52 180.68 1417.6 178.84C1431.2 171.72 1438.32 154.04 1439.92 128.76V127ZM1515.52 126.76H1524.96V144.84C1524.96 157.08 1523.36 174.44 1513.84 185.32C1512.16 183.72 1508 181 1505.6 180.04C1514.64 169.96 1515.52 155.4 1515.52 144.76V126.76ZM1520.48 126.76H1573.12V145.72H1520.48V138.76H1563.68V133.72H1520.48V126.76ZM1510.24 114.76H1578V123.32H1510.24V114.76ZM1519.76 150.6H1580V158.12H1519.76V150.6ZM1541.68 162.68H1565.6V169.96H1541.68V162.68ZM1542.8 144.84H1552.32V154.44H1542.8V144.84ZM1563.6 162.68H1573.12C1573.12 162.68 1573.04 164.92 1572.88 165.96C1572.08 176.52 1570.96 181.48 1568.96 183.64C1567.2 185.4 1565.12 185.96 1562.64 186.2C1560.4 186.44 1556.32 186.44 1552 186.28C1551.84 183.88 1550.88 180.52 1549.52 178.36C1553.12 178.68 1556.72 178.76 1558.24 178.76C1559.52 178.76 1560.24 178.6 1561.04 177.96C1562.16 176.92 1562.96 173 1563.6 163.8V162.68ZM1538.32 154.84H1547.84C1546.48 169.72 1542.8 180.36 1523.68 186.2C1522.8 183.96 1520.4 180.52 1518.48 178.76C1534.96 174.36 1537.2 166.2 1538.32 154.84Z" fill="white"/>
</g>
<defs>
<clipPath id="clip0_48_1181">
<rect width="2639" height="433" fill="white"/>
</clipPath>
</defs>
</svg>
