<svg width="1497" height="433" viewBox="0 0 1497 433" fill="none" xmlns="http://www.w3.org/2000/svg">
<g clip-path="url(#clip0_52_1612)">
<rect width="1497" height="433" fill="white"/>
<path d="M1801 0H0V433H1801V0Z" fill="#55B9C6"/>
<path d="M170.039 257.579C207.616 257.579 238.079 219.101 238.079 171.635C238.079 124.169 207.616 85.6904 170.039 85.6904C132.462 85.6904 102 124.169 102 171.635C102 219.101 132.462 257.579 170.039 257.579Z" fill="#F7C23E"/>
<path d="M170.039 355.475C168.105 355.475 166.543 353.911 166.543 351.974V130.95C166.543 129.013 168.105 127.449 170.039 127.449C171.974 127.449 173.536 129.013 173.536 130.95V351.974C173.536 353.911 171.974 355.475 170.039 355.475Z" fill="white"/>
<path d="M169.433 163.302C168.454 163.302 167.499 162.905 166.8 162.111L146.194 138.63C144.912 137.182 145.052 134.965 146.521 133.681C147.966 132.397 150.18 132.537 151.462 134.008L172.067 157.49C173.349 158.937 173.21 161.154 171.741 162.438C171.065 163.022 170.249 163.302 169.433 163.302Z" fill="white"/>
<path d="M171.671 225.485C170.785 225.485 169.876 225.135 169.2 224.458C167.848 223.081 167.848 220.863 169.2 219.509L206.914 181.929C208.29 180.575 210.504 180.575 211.856 181.929C213.208 183.306 213.208 185.524 211.856 186.877L174.142 224.458C173.466 225.135 172.58 225.485 171.671 225.485Z" fill="white"/>
<path d="M281.838 220.98C327.036 220.98 363.677 174.705 363.677 117.622C363.677 60.5394 327.036 14.2646 281.838 14.2646C236.64 14.2646 200 60.5394 200 117.622C200 174.705 236.64 220.98 281.838 220.98Z" fill="#04616E"/>
<path d="M281.838 338.039C279.904 338.039 278.342 336.475 278.342 334.538V68.6746C278.342 66.7372 279.904 65.1733 281.838 65.1733C283.773 65.1733 285.335 66.7372 285.335 68.6746V334.538C285.335 336.475 283.773 338.039 281.838 338.039Z" fill="white"/>
<path d="M281.512 163.185C280.533 163.185 279.577 162.788 278.878 161.995L238.437 115.708C237.155 114.261 237.318 112.043 238.763 110.76C240.208 109.476 242.423 109.639 243.705 111.086L284.146 157.373C285.428 158.82 285.265 161.038 283.82 162.322C283.167 162.905 282.328 163.185 281.512 163.185Z" fill="white"/>
<path d="M281.116 106.885C280.137 106.885 279.181 106.488 278.482 105.695L253.681 77.4278C252.399 75.9806 252.539 73.7631 254.007 72.4793C255.452 71.1955 257.667 71.3589 258.949 72.8061L283.75 101.073C285.032 102.52 284.892 104.738 283.423 106.021C282.747 106.605 281.931 106.885 281.116 106.885Z" fill="white"/>
<path d="M283.12 161.575C282.235 161.575 281.372 161.248 280.673 160.594C279.298 159.241 279.251 157.023 280.603 155.646L315.753 119.49C317.105 118.089 319.319 118.066 320.695 119.42C322.07 120.773 322.116 122.991 320.765 124.368L285.614 160.524C284.938 161.225 284.029 161.575 283.12 161.575Z" fill="white"/>
<path d="M1801 263H0V433H1801V263Z" fill="#04616E"/>
<path d="M570.505 332.56C570.505 338.02 568.165 342.64 563.485 345.04L569.665 358.12C569.965 358.84 570.385 359.56 570.385 360.46C570.385 362.56 568.705 364.72 565.945 364.72C564.025 364.72 562.645 363.58 561.985 361.96L555.385 346.78H546.505V360.46C546.505 362.8 544.585 364.72 542.245 364.72C539.845 364.72 537.985 362.8 537.985 360.46V322.96C537.985 320.62 539.845 318.7 542.245 318.7H555.265C565.585 318.7 570.505 324.7 570.505 332.56ZM552.925 325.84H546.505V339.7H553.585C559.765 339.7 561.925 337.24 561.925 332.74C561.925 327.34 558.925 325.84 552.925 325.84ZM609.612 325.9H592.452V337.48H607.692C609.732 337.48 611.352 338.98 611.352 341.02C611.352 343 609.732 344.62 607.692 344.62H592.452V356.8H609.672C611.712 356.8 613.332 358.36 613.332 360.4C613.332 362.38 611.712 364 609.672 364H588.192C585.792 364 583.932 362.08 583.932 359.74V322.96C583.932 320.62 585.792 318.7 588.192 318.7H609.612C611.652 318.7 613.272 320.32 613.272 322.3C613.272 324.28 611.652 325.9 609.612 325.9ZM652.702 361.6L634.282 332.5L634.402 346.84V360.46C634.402 362.8 632.662 364.72 630.322 364.72C627.922 364.72 626.422 362.8 626.422 360.46V322.12C626.422 320.02 627.862 317.86 630.742 317.86C633.022 317.86 634.402 318.94 635.662 320.92L654.082 349.66L654.022 334.6V322.12C654.022 319.78 655.582 317.86 657.922 317.86C660.322 317.86 662.002 319.78 662.002 322.12V360.46C662.002 362.56 660.502 364.72 657.562 364.72C655.282 364.72 654.022 363.58 652.702 361.6ZM705.252 326.02H695.172V360.46C695.172 362.8 693.312 364.72 690.912 364.72C688.572 364.72 686.652 362.8 686.652 360.46V326.02H676.392C674.352 326.02 672.732 324.34 672.732 322.36C672.732 320.38 674.352 318.7 676.392 318.7H705.252C707.232 318.7 708.852 320.38 708.852 322.36C708.852 324.34 707.232 326.02 705.252 326.02ZM772.848 322.12V360.46C772.848 362.86 770.928 364.72 768.588 364.72C766.188 364.72 764.328 362.86 764.328 360.46V344.44H745.068V360.46C745.068 362.86 743.148 364.72 740.808 364.72C738.408 364.72 736.548 362.86 736.548 360.46V322.12C736.548 319.78 738.408 317.86 740.808 317.86C743.148 317.86 745.068 319.78 745.068 322.12V336.88H764.328V322.12C764.328 319.78 766.188 317.86 768.588 317.86C770.928 317.86 772.848 319.78 772.848 322.12ZM786.322 344.56V338.56C786.322 324.94 793.822 317.86 804.922 317.86C816.022 317.86 823.642 324.94 823.642 338.56V344.56C823.642 358.18 816.022 364.9 804.922 364.9C793.822 364.9 786.322 358.18 786.322 344.56ZM794.902 338.14V344.98C794.902 352.96 797.722 357.7 804.922 357.7C812.182 357.7 815.062 352.96 815.062 344.98V338.14C815.062 329.98 812.002 325.06 804.922 325.06C798.202 325.06 794.902 329.98 794.902 338.14ZM864.711 344.74V322.12C864.711 319.78 866.631 317.86 868.971 317.86C871.311 317.86 873.231 319.78 873.231 322.12V345.1C873.231 358.72 866.031 364.9 854.931 364.9C843.831 364.9 836.811 358.72 836.811 345.1V322.12C836.811 319.78 838.791 317.86 841.131 317.86C843.471 317.86 845.391 319.78 845.391 322.12V344.74C845.391 353.56 848.151 357.46 854.931 357.46C861.171 357.46 864.711 354.22 864.711 344.74ZM886.301 358.72C886.301 356.92 887.321 355.06 889.841 355.06C891.821 355.06 895.181 357.46 900.581 357.46C906.581 357.46 909.521 355.36 909.521 350.86C909.521 347.14 907.421 345.7 901.841 345.04L897.341 344.44C889.721 343.42 885.881 338.86 885.881 331.78C885.881 322.24 893.381 317.98 902.741 317.98C906.341 317.98 911.801 318.76 914.501 320.8C915.581 321.58 916.301 322.6 916.301 323.86C916.301 325.9 914.741 327.52 912.821 327.52C912.161 327.52 911.441 327.22 910.661 326.92C908.741 326.26 906.281 325.18 902.921 325.18C897.221 325.18 894.281 327.04 894.281 331.42C894.281 335.2 896.441 336.64 901.301 337.24L905.501 337.78C913.661 338.8 918.041 343.18 918.041 350.62C918.041 360.52 910.241 364.72 900.101 364.72C896.501 364.72 891.401 364 888.521 362.14C887.201 361.3 886.301 360.16 886.301 358.72ZM956.445 325.9H939.285V337.48H954.525C956.565 337.48 958.185 338.98 958.185 341.02C958.185 343 956.565 344.62 954.525 344.62H939.285V356.8H956.505C958.545 356.8 960.165 358.36 960.165 360.4C960.165 362.38 958.545 364 956.505 364H935.025C932.625 364 930.765 362.08 930.765 359.74V322.96C930.765 320.62 932.625 318.7 935.025 318.7H956.445C958.485 318.7 960.105 320.32 960.105 322.3C960.105 324.28 958.485 325.9 956.445 325.9Z" fill="white"/>
<path d="M487.08 151.72C494.44 150.2 505.48 147.56 515.72 144.84L516.84 153.72C507.56 156.28 497.4 158.92 489.56 160.92L487.08 151.72ZM488.04 126.28H516.04V135.24H488.04V126.28ZM498.04 111.08H507.4V175.48C507.4 180.04 506.52 182.44 503.88 183.88C501.16 185.32 497.32 185.56 491.64 185.56C491.32 183.16 490.12 179.24 489 176.84C492.12 177 495.48 176.92 496.52 176.92C497.64 176.92 498.04 176.52 498.04 175.4V111.08ZM516.92 132.36L560.68 128.12L561.64 137.08L517.88 141.56L516.92 132.36ZM538.76 116.6L546.12 111.88C549.64 115.32 554.52 120.28 556.92 123.48L549.16 128.84C547 125.56 542.28 120.28 538.76 116.6ZM525.96 111.48H535.8C536.36 146.12 541.16 172.52 551.64 174.04C553.48 174.28 554.52 170.36 555 161.72C556.92 163.8 561.16 166.44 563.08 167.32C560.92 182.28 556.6 185.96 552.12 185.56C532.44 183.56 527.4 155.08 525.96 111.48ZM550.28 140.2L558.2 145C550.92 160.92 536.68 176.2 521.08 183.56C519.32 181.08 516.12 178.04 513.4 176.12C529.64 169.8 543.64 155.32 550.28 140.2ZM610.76 115.08H643.24V123.96H610.76V115.08ZM608.04 142.92H652.2V151.96H608.04V142.92ZM624.92 133.56H634.6V175.56C634.6 180.36 633.64 182.92 630.52 184.44C627.32 185.88 622.92 186.2 617 186.12C616.52 183.48 614.92 179.32 613.64 176.76C617.72 176.92 621.88 177 623.24 176.92C624.52 176.84 624.92 176.52 624.92 175.4V133.56ZM639.8 115.08H642.12L644.12 114.6L650.36 119.32C645.64 126.28 638.84 134.76 632.6 140.04C631.32 138.36 628.68 135.72 627.16 134.44C631.88 129.88 637.4 121.96 639.8 117.16V115.08ZM577.56 127H603.4V135.88H577.56V127ZM588.28 111.08L597.32 112.04C594.28 129.08 589.64 150.52 585.88 164.92L578.04 160.76C581.48 148.12 585.8 127 588.28 111.08ZM582.2 159.4L587.48 152.68C595.8 157.88 606.36 165.64 611 171.64L605.24 179.4C600.76 173.32 590.6 164.92 582.2 159.4ZM600.12 127H601.64L603.32 126.76L609 127.72C607.16 158.92 599.4 176.6 583.56 186.44C582.28 184.12 579.72 180.68 577.8 178.84C591.4 171.72 598.52 154.04 600.12 128.76V127ZM675.72 126.76H685.16V144.84C685.16 157.08 683.56 174.44 674.04 185.32C672.36 183.72 668.2 181 665.8 180.04C674.84 169.96 675.72 155.4 675.72 144.76V126.76ZM680.68 126.76H733.32V145.72H680.68V138.76H723.88V133.72H680.68V126.76ZM670.44 114.76H738.2V123.32H670.44V114.76ZM679.96 150.6H740.2V158.12H679.96V150.6ZM701.88 162.68H725.8V169.96H701.88V162.68ZM703 144.84H712.52V154.44H703V144.84ZM723.8 162.68H733.32C733.32 162.68 733.24 164.92 733.08 165.96C732.28 176.52 731.16 181.48 729.16 183.64C727.4 185.4 725.32 185.96 722.84 186.2C720.6 186.44 716.52 186.44 712.2 186.28C712.04 183.88 711.08 180.52 709.72 178.36C713.32 178.68 716.92 178.76 718.44 178.76C719.72 178.76 720.44 178.6 721.24 177.96C722.36 176.92 723.16 173 723.8 163.8V162.68ZM698.52 154.84H708.04C706.68 169.72 703 180.36 683.88 186.2C683 183.96 680.6 180.52 678.68 178.76C695.16 174.36 697.4 166.2 698.52 154.84ZM781.48 126.52H830.44V135.64H781.48V126.52ZM784.12 149.56H828.2V158.68H784.12V149.56ZM779.72 174.52H831.64V183.64H779.72V174.52ZM801.08 129.32H810.84V180.36H801.08V129.32ZM791 117.72L797.32 110.92C803.24 114.04 811.48 119 815.56 122.6L808.68 130.28C805.08 126.6 797 121.24 791 117.72ZM774.12 111.24L783.08 114.12C777.64 127.72 768.84 142.04 759.72 151.08C758.92 148.84 756.36 143.56 754.76 141.24C762.36 134.04 769.8 122.68 774.12 111.24ZM766.44 133.4L775.48 124.28L775.56 124.36V185.96H766.44V133.4ZM879.56 115.08H912.04V123.96H879.56V115.08ZM876.84 142.92H921V151.96H876.84V142.92ZM893.72 133.56H903.4V175.56C903.4 180.36 902.44 182.92 899.32 184.44C896.12 185.88 891.72 186.2 885.8 186.12C885.32 183.48 883.72 179.32 882.44 176.76C886.52 176.92 890.68 177 892.04 176.92C893.32 176.84 893.72 176.52 893.72 175.4V133.56ZM908.6 115.08H910.92L912.92 114.6L919.16 119.32C914.44 126.28 907.64 134.76 901.4 140.04C900.12 138.36 897.48 135.72 895.96 134.44C900.68 129.88 906.2 121.96 908.6 117.16V115.08ZM846.36 127H872.2V135.88H846.36V127ZM857.08 111.08L866.12 112.04C863.08 129.08 858.44 150.52 854.68 164.92L846.84 160.76C850.28 148.12 854.6 127 857.08 111.08ZM851 159.4L856.28 152.68C864.6 157.88 875.16 165.64 879.8 171.64L874.04 179.4C869.56 173.32 859.4 164.92 851 159.4ZM868.92 127H870.44L872.12 126.76L877.8 127.72C875.96 158.92 868.2 176.6 852.36 186.44C851.08 184.12 848.52 180.68 846.6 178.84C860.2 171.72 867.32 154.04 868.92 128.76V127ZM944.52 126.76H953.96V144.84C953.96 157.08 952.36 174.44 942.84 185.32C941.16 183.72 937 181 934.6 180.04C943.64 169.96 944.52 155.4 944.52 144.76V126.76ZM949.48 126.76H1002.12V145.72H949.48V138.76H992.68V133.72H949.48V126.76ZM939.24 114.76H1007V123.32H939.24V114.76ZM948.76 150.6H1009V158.12H948.76V150.6ZM970.68 162.68H994.6V169.96H970.68V162.68ZM971.8 144.84H981.32V154.44H971.8V144.84ZM992.6 162.68H1002.12C1002.12 162.68 1002.04 164.92 1001.88 165.96C1001.08 176.52 999.96 181.48 997.96 183.64C996.2 185.4 994.12 185.96 991.64 186.2C989.4 186.44 985.32 186.44 981 186.28C980.84 183.88 979.88 180.52 978.52 178.36C982.12 178.68 985.72 178.76 987.24 178.76C988.52 178.76 989.24 178.6 990.04 177.96C991.16 176.92 991.96 173 992.6 163.8V162.68ZM967.32 154.84H976.84C975.48 169.72 971.8 180.36 952.68 186.2C951.8 183.96 949.4 180.52 947.48 178.76C963.96 174.36 966.2 166.2 967.32 154.84Z" fill="white"/>
<path d="M1407.37 190.513H1191V380.663H1407.37V190.513Z" fill="#B7E8EF"/>
<path d="M1407.37 190.513H1191V203.072H1407.37V190.513Z" fill="#55B9C6"/>
<path d="M1407.38 190.513H1309.82V380.663H1407.38V190.513Z" fill="white"/>
<path d="M1309.84 190.513H1407.38L1358.21 107.729L1309.84 190.513Z" fill="white"/>
<path d="M1351.6 207.866H1327.22V259.551H1351.6V207.866Z" fill="#F7C23E"/>
<path d="M1389.99 207.866H1365.62V259.551H1389.99V207.866Z" fill="#F7C23E"/>
<path d="M1351.6 285.596H1327.22V337.281H1351.6V285.596Z" fill="#F7C23E"/>
<path d="M1389.99 285.596H1365.62V337.281H1389.99V285.596Z" fill="#F7C23E"/>
<path d="M1309.84 190.513H1191L1238.12 107.729H1358.21L1309.84 190.513Z" fill="#F76757"/>
<path d="M1301.18 94H1254.11V140.096H1301.18V94Z" fill="#F7C23E"/>
<path d="M1301.18 94H1289.84V140.096H1301.18V94Z" fill="white"/>
<path d="M1253.98 110.661H1154.43L1169.48 38.0487L1203.92 38L1253.98 110.661Z" fill="#04616E"/>
<path d="M1253.98 110.661H1219.57V380.752H1253.98V110.661Z" fill="#F76757"/>
<path d="M1120 380.735H1219.57V110.645H1120V380.735Z" fill="white"/>
<path d="M1219.55 110.661H1120L1169.49 38L1219.55 110.661Z" fill="white"/>
<path d="M1162.46 133.018H1142.57V189.366H1162.46V133.018Z" fill="#B7E8EF"/>
<path d="M1197.02 133.018H1177.13V189.366H1197.02V133.018Z" fill="#B7E8EF"/>
<path d="M1162.46 294.474H1142.57V350.822H1162.46V294.474Z" fill="#B7E8EF"/>
<path d="M1197.02 294.474H1177.13V350.822H1197.02V294.474Z" fill="#B7E8EF"/>
<path d="M1162.46 213.738H1142.57V270.086H1162.46V213.738Z" fill="#F7C23E"/>
<path d="M1197.02 213.738H1177.13V270.086H1197.02V213.738Z" fill="#F7C23E"/>
</g>
<defs>
<clipPath id="clip0_52_1612">
<rect width="1497" height="433" fill="white"/>
</clipPath>
</defs>
</svg>
