<svg width="233" height="198" viewBox="0 0 233 198" fill="none" xmlns="http://www.w3.org/2000/svg">
<path d="M197.44 113.72C216.831 113.72 232.55 93.8951 232.55 69.44C232.55 44.9848 216.831 25.16 197.44 25.16C178.049 25.16 162.33 44.9848 162.33 69.44C162.33 93.8951 178.049 113.72 197.44 113.72Z" fill="#04616E"/>
<path d="M197.44 195.04C196.61 195.04 195.94 194.37 195.94 193.54V50.47C195.94 49.64 196.61 48.97 197.44 48.97C198.27 48.97 198.94 49.64 198.94 50.47V193.54C198.94 194.37 198.27 195.04 197.44 195.04Z" fill="white"/>
<path d="M197.58 88.95C197.23 88.95 196.88 88.83 196.59 88.58C195.97 88.03 195.9 87.09 196.45 86.46L213.8 66.63C214.34 66.01 215.29 65.94 215.92 66.49C216.54 67.04 216.61 67.98 216.06 68.61L198.71 88.44C198.41 88.78 198 88.95 197.58 88.95Z" fill="white"/>
<path d="M196.54 73.05C196.15 73.05 195.76 72.9 195.46 72.6L180.38 57.11C179.8 56.52 179.82 55.57 180.41 54.99C181 54.41 181.95 54.42 182.53 55.02L197.61 70.51C198.19 71.1 198.17 72.05 197.58 72.63C197.29 72.91 196.91 73.05 196.53 73.05H196.54Z" fill="white"/>
<path d="M13.22 197.58C12.67 197.58 12.22 197.13 12.22 196.58V159.04C12.22 158.49 12.67 158.04 13.22 158.04C13.77 158.04 14.22 158.49 14.22 159.04V196.58C14.22 197.13 13.77 197.58 13.22 197.58Z" fill="#04616E"/>
<path d="M13.2198 160.26C17.9916 160.26 21.8598 156.392 21.8598 151.62C21.8598 146.848 17.9916 142.98 13.2198 142.98C8.44809 142.98 4.57983 146.848 4.57983 151.62C4.57983 156.392 8.44809 160.26 13.2198 160.26Z" fill="white"/>
<path d="M13.2201 156.52C15.9263 156.52 18.1201 154.326 18.1201 151.62C18.1201 148.914 15.9263 146.72 13.2201 146.72C10.5139 146.72 8.32007 148.914 8.32007 151.62C8.32007 154.326 10.5139 156.52 13.2201 156.52Z" fill="#F76757"/>
<path d="M10.2199 174.49C13.6799 179.35 13.01 185.76 13.01 185.76C13.01 185.76 6.72995 184.3 3.26995 179.44C-0.190049 174.58 0.47995 168.17 0.47995 168.17C0.47995 168.17 6.75995 169.63 10.2199 174.49Z" fill="#04616E"/>
<path d="M21.08 170.9C18.41 174.45 13.7 175.42 13.7 175.42C13.7 175.42 13.33 170.63 16 167.07C18.67 163.52 23.38 162.55 23.38 162.55C23.38 162.55 23.75 167.34 21.08 170.9Z" fill="#04616E"/>
<path d="M217.19 196.12C216.36 196.12 215.69 195.45 215.69 194.62V147.99C215.69 147.16 216.36 146.49 217.19 146.49C218.02 146.49 218.69 147.16 218.69 147.99V194.62C218.69 195.45 218.02 196.12 217.19 196.12Z" fill="#04616E"/>
<path d="M217.19 149.51C223.116 149.51 227.92 144.706 227.92 138.78C227.92 132.854 223.116 128.05 217.19 128.05C211.264 128.05 206.46 132.854 206.46 138.78C206.46 144.706 211.264 149.51 217.19 149.51Z" fill="#F76757"/>
<path d="M217.19 144.87C220.554 144.87 223.28 142.143 223.28 138.78C223.28 135.417 220.554 132.69 217.19 132.69C213.827 132.69 211.1 135.417 211.1 138.78C211.1 142.143 213.827 144.87 217.19 144.87Z" fill="#F7C23E"/>
<path d="M213.36 159.47C218.08 166.09 217.17 174.82 217.17 174.82C217.17 174.82 208.61 172.83 203.9 166.21C199.18 159.59 200.09 150.86 200.09 150.86C200.09 150.86 208.65 152.85 213.36 159.47Z" fill="#04616E"/>
<path d="M180.23 3.25H31.02V193.46H180.23V3.25Z" fill="white"/>
<path d="M180.23 181.18H31.02V193.46H180.23V181.18Z" fill="#04616E"/>
<path d="M92.6899 112.14H56.9199V184.07H92.6899V112.14Z" fill="#F76757"/>
<path d="M87.73 179.11V117.09H61.86V179.11H87.73Z" fill="#D3463C"/>
<path d="M96.7401 184.07H52.8701V190H96.7401V184.07Z" fill="#D3463C"/>
<path d="M100.04 189.99H49.5698V195.93H100.04V189.99Z" fill="#F76757"/>
<path d="M184.46 0.280029H26.78V6.22003H184.46V0.280029Z" fill="#04616E"/>
<path d="M180.23 6.21997H31.02V9.18997H180.23V6.21997Z" fill="#55B9C6"/>
<path d="M76.1399 33.95H56.9199V83.89H76.1399V33.95Z" fill="#F7C23E"/>
<path d="M115.23 33.95H96.0098V83.89H115.23V33.95Z" fill="#F7C23E"/>
<path d="M154.33 33.95H135.11V83.89H154.33V33.95Z" fill="#F7C23E"/>
<path d="M154.33 112.14H102.09V162.08H154.33V112.14Z" fill="#F7C23E"/>
<path d="M72.2899 38.95H56.9199V83.9H72.2899V38.95Z" fill="#F7C23E"/>
<path d="M111.39 38.95H96.0098V83.9H111.39V38.95Z" fill="#F7C23E"/>
<path d="M150.49 38.95H135.11V83.9H150.49V38.95Z" fill="#F7C23E"/>
<path d="M143.88 117.14H102.09V162.09H143.88V117.14Z" fill="#F7C23E"/>
</svg>
