<svg width="131" height="19" viewBox="0 0 131 19" fill="none" xmlns="http://www.w3.org/2000/svg">
<path d="M0 19V8L7.5 3L15 8V19H10V12H5V19H0ZM24 0V19H17V6.93L16 6.27V4H14V4.93L10 2.27V0H24ZM21 12H19V14H21V12ZM21 8H19V10H21V8ZM21 4H19V6H21V4Z" fill="white"/>
<path d="M39.984 7.61598C39.984 9.07198 39.36 10.304 38.112 10.944L39.76 14.432C39.84 14.624 39.952 14.816 39.952 15.056C39.952 15.616 39.504 16.192 38.768 16.192C38.256 16.192 37.888 15.888 37.712 15.456L35.952 11.408H33.584V15.056C33.584 15.68 33.072 16.192 32.448 16.192C31.808 16.192 31.312 15.68 31.312 15.056V5.05598C31.312 4.43198 31.808 3.91998 32.448 3.91998H35.92C38.672 3.91998 39.984 5.51998 39.984 7.61598ZM35.296 5.82398H33.584V9.51998H35.472C37.12 9.51998 37.696 8.86398 37.696 7.66398C37.696 6.22398 36.896 5.82398 35.296 5.82398Z" fill="white"/>
<path d="M48.9725 5.83998H44.3965V8.92798H48.4605C49.0045 8.92798 49.4365 9.32798 49.4365 9.87198C49.4365 10.4 49.0045 10.832 48.4605 10.832H44.3965V14.08H48.9885C49.5325 14.08 49.9645 14.496 49.9645 15.04C49.9645 15.568 49.5325 16 48.9885 16H43.2605C42.6205 16 42.1245 15.488 42.1245 14.864V5.05598C42.1245 4.43198 42.6205 3.91998 43.2605 3.91998H48.9725C49.5165 3.91998 49.9485 4.35198 49.9485 4.87998C49.9485 5.40798 49.5165 5.83998 48.9725 5.83998Z" fill="white"/>
<path d="M59.0231 15.36L54.1111 7.59998L54.1431 11.424V15.056C54.1431 15.68 53.6791 16.192 53.0551 16.192C52.4151 16.192 52.0151 15.68 52.0151 15.056V4.83198C52.0151 4.27198 52.3991 3.69598 53.1671 3.69598C53.7751 3.69598 54.1431 3.98398 54.4791 4.51198L59.3911 12.176L59.3751 8.15998V4.83198C59.3751 4.20798 59.7911 3.69598 60.4151 3.69598C61.0551 3.69598 61.5031 4.20798 61.5031 4.83198V15.056C61.5031 15.616 61.1031 16.192 60.3191 16.192C59.7111 16.192 59.3751 15.888 59.0231 15.36Z" fill="white"/>
<path d="M71.5965 5.87198H68.9085V15.056C68.9085 15.68 68.4125 16.192 67.7725 16.192C67.1485 16.192 66.6365 15.68 66.6365 15.056V5.87198H63.9005C63.3565 5.87198 62.9245 5.42398 62.9245 4.89598C62.9245 4.36798 63.3565 3.91998 63.9005 3.91998H71.5965C72.1245 3.91998 72.5565 4.36798 72.5565 4.89598C72.5565 5.42398 72.1245 5.87198 71.5965 5.87198Z" fill="white"/>
<path d="M86.742 4.83198V15.056C86.742 15.696 86.23 16.192 85.606 16.192C84.966 16.192 84.47 15.696 84.47 15.056V10.784H79.334V15.056C79.334 15.696 78.822 16.192 78.198 16.192C77.558 16.192 77.062 15.696 77.062 15.056V4.83198C77.062 4.20798 77.558 3.69598 78.198 3.69598C78.822 3.69598 79.334 4.20798 79.334 4.83198V8.76798H84.47V4.83198C84.47 4.20798 84.966 3.69598 85.606 3.69598C86.23 3.69598 86.742 4.20798 86.742 4.83198Z" fill="white"/>
<path d="M88.8953 10.816V9.21598C88.8953 5.58398 90.8953 3.69598 93.8553 3.69598C96.8153 3.69598 98.8473 5.58398 98.8473 9.21598V10.816C98.8473 14.448 96.8153 16.24 93.8553 16.24C90.8953 16.24 88.8953 14.448 88.8953 10.816ZM91.1833 9.10398V10.928C91.1833 13.056 91.9353 14.32 93.8553 14.32C95.7913 14.32 96.5593 13.056 96.5593 10.928V9.10398C96.5593 6.92798 95.7433 5.61598 93.8553 5.61598C92.0633 5.61598 91.1833 6.92798 91.1833 9.10398Z" fill="white"/>
<path d="M108.359 10.864V4.83198C108.359 4.20798 108.871 3.69598 109.495 3.69598C110.119 3.69598 110.631 4.20798 110.631 4.83198V10.96C110.631 14.592 108.711 16.24 105.751 16.24C102.791 16.24 100.919 14.592 100.919 10.96V4.83198C100.919 4.20798 101.447 3.69598 102.071 3.69598C102.695 3.69598 103.207 4.20798 103.207 4.83198V10.864C103.207 13.216 103.943 14.256 105.751 14.256C107.415 14.256 108.359 13.392 108.359 10.864Z" fill="white"/>
<path d="M112.676 14.592C112.676 14.112 112.948 13.616 113.62 13.616C114.148 13.616 115.044 14.256 116.484 14.256C118.084 14.256 118.868 13.696 118.868 12.496C118.868 11.504 118.308 11.12 116.82 10.944L115.62 10.784C113.588 10.512 112.564 9.29598 112.564 7.40798C112.564 4.86398 114.564 3.72798 117.06 3.72798C118.02 3.72798 119.476 3.93598 120.196 4.47998C120.484 4.68798 120.676 4.95998 120.676 5.29598C120.676 5.83998 120.26 6.27198 119.748 6.27198C119.572 6.27198 119.38 6.19198 119.172 6.11198C118.66 5.93598 118.004 5.64798 117.108 5.64798C115.588 5.64798 114.804 6.14398 114.804 7.31198C114.804 8.31998 115.38 8.70398 116.676 8.86398L117.796 9.00798C119.972 9.27998 121.14 10.448 121.14 12.432C121.14 15.072 119.06 16.192 116.356 16.192C115.396 16.192 114.036 16 113.268 15.504C112.916 15.28 112.676 14.976 112.676 14.592Z" fill="white"/>
<path d="M129.941 5.83998H125.365V8.92798H129.429C129.973 8.92798 130.405 9.32798 130.405 9.87198C130.405 10.4 129.973 10.832 129.429 10.832H125.365V14.08H129.957C130.501 14.08 130.933 14.496 130.933 15.04C130.933 15.568 130.501 16 129.957 16H124.229C123.589 16 123.093 15.488 123.093 14.864V5.05598C123.093 4.43198 123.589 3.91998 124.229 3.91998H129.941C130.485 3.91998 130.917 4.35198 130.917 4.87998C130.917 5.40798 130.485 5.83998 129.941 5.83998Z" fill="white"/>
</svg>
