<svg width="166" height="40" viewBox="0 0 166 40" fill="none" xmlns="http://www.w3.org/2000/svg">
<path d="M23.3095 34.2902C22.8861 25.4001 21.9471 16.5837 20.5662 8.08018L20.4557 7.43597H19.7929C18.7986 7.43597 17.7307 7.56482 16.5339 7.84091L15.8711 7.98815L16.3682 12.516C17.0679 18.866 17.7675 25.2161 18.4672 31.5293C17.0863 31.6581 15.7054 31.8606 14.2693 32.1183L13.6064 32.2471L13.6249 32.9097C13.6801 34.1613 13.8826 35.0816 14.2877 35.7811L14.5086 36.1676H14.9505C18.2463 36.1676 20.8055 35.7995 22.7756 35.0264L23.2911 34.8239L23.3095 34.2902Z" fill="white"/>
<path d="M7.34638 18.7004C6.37054 18.2218 5.33947 17.8537 4.28999 17.6328L3.66399 17.504L3.42462 18.093C2.11737 21.1851 1.01266 24.5718 0.128886 28.1978L0 28.7132L0.441892 29.0077C1.3809 29.6519 2.48562 30.0016 3.71922 30.0568L4.28999 30.0752L4.47411 29.5414C5.72612 25.9339 6.83084 22.6024 7.73303 19.6206L7.91715 18.9948L7.34638 18.7004Z" fill="white" fill-opacity="0.8"/>
<path d="M36.0322 25.1424C35.6824 24.0933 35.2037 22.9521 34.6697 21.7005C34.3015 20.8538 33.9148 20.044 33.5098 19.1789C33.3257 18.7739 33.1231 18.369 32.9206 17.9457L32.626 17.3199L31.9632 17.5592C31.1162 17.8537 30.2325 18.2218 29.0541 18.7003L28.4097 18.9764L28.6122 19.639C29.3855 22.1422 30.4718 24.5534 31.8895 27.0014L32.1657 27.4615L32.6997 27.3695C33.8412 27.167 34.8907 26.7069 35.7745 26.0075L36.1979 25.6762L36.0322 25.1424Z" fill="white" fill-opacity="0.8"/>
<path d="M67.0933 32.7257C66.6698 23.8356 65.7308 15.0192 64.3499 6.51567L64.2394 5.87146H63.5766C62.5823 5.87146 61.5144 6.0003 60.3176 6.27639L59.6548 6.42364L60.1519 10.9515C60.8516 17.3015 61.5512 23.6516 62.2509 29.9648C60.87 30.0936 59.4891 30.2961 58.053 30.5538L57.3901 30.6826L57.4086 31.3452C57.4638 32.5968 57.6663 33.5171 58.0714 34.2165L58.2923 34.6031H58.7342C62.03 34.6031 64.5892 34.235 66.5593 33.4619L67.0748 33.2594L67.0933 32.7257Z" fill="white"/>
<path d="M51.1301 17.1359C50.1542 16.6573 49.1232 16.2892 48.0737 16.0684L47.4477 15.9395L47.2083 16.5285C45.9011 19.6207 44.7964 23.0074 43.9126 26.6333L43.7837 27.1487L44.2256 27.4432C45.1646 28.0874 46.2693 28.4371 47.5029 28.4923L48.0737 28.5107L48.2578 27.977C49.5098 24.3694 50.6145 21.0379 51.5167 18.0562L51.7008 17.4304L51.1301 17.1359Z" fill="white" fill-opacity="0.8"/>
<path d="M79.8159 23.5779C79.4661 22.5288 78.9874 21.3876 78.4534 20.136C78.0852 19.2894 77.6986 18.4795 77.2935 17.6144C77.1094 17.2095 76.9068 16.8046 76.7043 16.3812L76.4097 15.7554L75.7469 15.9947C74.8999 16.2892 74.0161 16.6573 72.8378 17.1359L72.1934 17.412L72.3959 18.0746C73.1692 20.5778 74.2555 22.9889 75.6732 25.4369L75.9494 25.8971L76.4834 25.805C77.6249 25.6026 78.6744 25.1424 79.5581 24.443L79.9816 24.1117L79.8159 23.5779Z" fill="white" fill-opacity="0.8"/>
<path d="M122.734 33.2226L122.513 32.7993H120.746C120.856 31.382 120.948 30.02 121.022 28.6764L121.059 27.9402L120.046 27.8481C119.199 27.7745 118.389 27.7009 117.634 27.7009H116.953L116.861 28.3635C116.4 31.695 116.161 34.2166 116.161 35.6706V36.2044L116.658 36.3885C116.842 36.4621 117.376 36.6461 119.494 36.6461C120.488 36.6461 121.409 36.5541 122.274 36.4621L122.974 36.3885V35.689C122.974 35.4682 122.992 35.2841 122.992 35.1C123.01 34.916 123.01 34.7319 123.01 34.5479C123.029 34.0509 122.937 33.6276 122.734 33.2226Z" fill="white"/>
<path d="M108.778 28.3083C108.005 27.8298 107.01 27.5168 105.924 27.4064L105.335 27.3512L105.132 27.9034C104.359 29.9096 103.733 32.2103 103.309 34.6951L103.236 35.1737L103.623 35.4498C104.359 35.9836 105.353 36.2412 106.55 36.2412H107.084L107.268 35.7443C107.784 34.3822 108.41 32.1735 109.128 29.1366L109.257 28.6028L108.778 28.3083Z" fill="white"/>
<path d="M113.786 28.3635C112.902 28.2715 112.074 28.1979 111.282 28.1979H110.619L110.509 28.8421C110.159 30.9956 109.975 33.0202 109.975 35.0449L109.993 35.7443L110.693 35.8179C111.558 35.91 112.46 36.002 113.307 36.002H113.952L114.062 35.3762C114.412 33.4067 114.596 31.3637 114.596 29.155V28.4556L113.786 28.3635Z" fill="white"/>
<path d="M102.463 22.8049C102.094 22.6945 101.597 22.6393 100.971 22.6393C100.051 22.6761 99.2036 22.7129 98.4487 22.7497C98.4487 22.6761 98.4303 22.6024 98.4303 22.5288C102.278 16.142 102.389 14.964 102.426 14.5775L102.499 13.8228L101.744 13.7308C99.9401 13.5283 97.4729 13.3811 93.993 13.2891H93.9562H93.9194C92.2255 13.3811 90.7341 13.5099 89.39 13.694L88.7272 13.786V14.467C88.7272 15.4057 88.8377 16.1788 89.0771 16.8782L89.1691 17.1727L89.4637 17.32C89.7951 17.4856 90.2554 17.4856 92.4648 17.4856C93.6432 17.4856 94.8768 17.504 96.1472 17.5408C95.7422 18.3139 95.3371 19.1237 94.932 19.9888C94.8032 20.0072 94.6743 20.0256 94.5638 20.044L93.7537 20.1729L93.7905 20.8539C93.9378 23.9461 94.2692 27.1855 94.7663 30.701C94.3244 30.7563 93.8826 30.8115 93.4407 30.8667C93.3854 28.7868 93.3118 26.7806 93.2013 24.7559L93.1645 24.259L92.7042 24.0749C92.336 23.9277 91.7836 23.8541 91.1576 23.8541H91.0471C90.4579 23.9461 89.8872 24.0565 89.4821 24.3142L89.1323 24.5351V24.94C89.1323 27.2223 89.2612 29.4863 89.39 31.3453L88.3406 31.4741L88.4142 32.2103C88.4879 33.0754 88.6536 33.9589 88.8745 34.8424L89.0218 35.4682L89.6662 35.4314C94.1035 35.1553 98.0069 34.7135 101.597 34.0693L102.26 33.9589L102.223 33.2779C102.168 32.1919 102.076 31.3452 101.91 30.5906L101.763 29.928L101.082 30.0016C100.492 30.0568 99.9033 30.112 99.3509 30.1857C99.2589 29.1365 99.1484 28.0874 99.0379 26.9831C100.327 26.9646 101.45 26.8726 102.426 26.7254L103.089 26.6333V22.9153L102.463 22.8049Z" fill="white"/>
<path d="M121.04 13.0498C119.07 12.9762 117.119 12.9026 115.185 12.8289C115.241 12.2583 115.277 11.7062 115.277 11.1356V10.6202L114.799 10.4178C114.504 10.3073 114.209 10.2153 113.878 10.1601L112.479 10.1049C112.092 10.1233 111.761 10.1601 111.484 10.1785L111.006 10.2337L110.84 10.6938C110.656 11.2276 110.527 11.8534 110.453 12.6449C108.318 12.5897 106.2 12.516 104.138 12.4424L103.659 12.424L103.438 12.8473C103.144 13.3995 102.997 13.9517 102.997 14.5591C102.997 15.3689 103.07 15.8843 103.218 16.3076L103.383 16.7678L103.88 16.8046C104.819 16.8598 105.777 16.915 106.753 16.9334C105.666 19.3446 104.819 21.8846 104.267 24.4615L104.101 25.1977L104.838 25.3818C108.023 26.1548 111.761 26.5413 116.253 26.5413H116.879L117.026 25.8051C117.1 25.4002 117.192 24.9768 117.192 24.4983C117.192 24.0197 117.082 23.5964 116.99 23.2283L116.861 22.7129L116.327 22.6577C113.583 22.3448 111.466 22.0871 109.975 21.8846C110.509 20.3017 111.043 18.6636 111.613 17.0623C114.633 17.1727 117.745 17.2647 120.838 17.3016H121.445L121.593 16.7126C121.685 16.3445 121.795 15.7739 121.795 15.0008V13.0866L121.04 13.0498Z" fill="white"/>
<path d="M120.341 4.19654C118.757 4.0861 117.119 3.97567 115.461 3.90204C115.535 3.47871 115.609 3.03697 115.664 2.59523L115.756 1.8958L115.075 1.74856C114.265 1.5645 113.326 1.43565 112.276 1.34362L111.705 1.28841L111.503 1.82218C111.264 2.42957 111.061 3.03697 110.877 3.64436C107.471 3.49711 103.972 3.42349 100.566 3.33146C100.511 2.72407 100.437 2.07986 100.382 1.45406L100.308 0.754639H99.6088C98.4304 0.754639 97.2889 0.846668 96.2946 1.03073L95.6134 1.15957L95.6502 1.84059C95.687 2.30073 95.7054 2.77928 95.7423 3.27624C95.1715 3.27624 94.5823 3.25784 94.0115 3.25784C93.1277 3.23943 92.244 3.23943 91.3418 3.23943H90.8078L90.6237 3.7548C90.4396 4.25176 90.366 4.76712 90.366 5.41133C90.366 6.55249 90.458 6.92061 90.5685 7.14148L90.771 7.52801L91.2129 7.56482C92.5754 7.67526 94.3613 7.78569 96.3314 7.87772C96.4419 8.65076 96.5892 9.46063 96.7733 10.2889L96.9022 10.8963H97.5282C98.5409 10.8963 99.5719 10.8043 100.603 10.6202L101.321 10.4914L101.247 9.77353C101.192 9.22135 101.137 8.65076 101.082 8.06178C103.751 8.15381 106.679 8.22743 109.809 8.28265C109.791 8.4299 109.772 8.59555 109.754 8.7428L109.699 9.29497L110.214 9.51584C110.877 9.81034 111.632 9.9944 112.534 10.0864L113.933 10.1416L114.449 8.31946H120.764L120.948 7.78569C121.077 7.38076 121.169 6.79177 121.169 6.14756V4.21494L120.341 4.19654Z" fill="white" fill-opacity="0.8"/>
<path d="M121.979 24.2406C121.648 22.2711 121.077 20.7251 120.267 19.6943L119.973 19.3078L119.494 19.3998C118.444 19.6023 117.653 19.86 117.045 20.1545L116.585 20.3938L116.622 20.9091C116.769 22.8417 117.303 24.3694 118.26 25.621L118.518 25.9707L118.941 25.9155C119.825 25.8235 120.709 25.529 121.574 25.0504L122.053 24.7928L121.979 24.2406Z" fill="white"/>
<path d="M159.963 28.5844C161.086 28.4556 162.081 28.2899 162.983 28.0875L163.517 27.9586L163.572 27.4064C163.959 23.5964 164.235 19.3631 164.364 14.8536L164.382 14.1542L163.682 14.0806C163.406 14.0438 163.149 14.0253 162.872 13.9885L162.044 13.8965C160.111 13.694 158.048 13.51 155.894 13.3443C155.802 12.24 155.673 11.2461 155.508 10.3258L155.379 9.62634L154.661 9.69997C153.611 9.8104 152.746 9.88403 151.844 9.95765L151.144 10.0129V10.7307C151.144 11.4485 151.199 12.2216 151.31 13.0867C148.935 13.013 146.725 12.9394 144.368 12.9026H143.834L143.632 13.3996C143.429 13.9149 143.319 14.4487 143.319 14.9456C143.319 15.6451 143.392 16.1604 143.54 16.5654L143.724 17.0439L144.239 17.0623C152.193 17.4488 157.33 17.7617 159.724 17.9458C159.558 19.9336 159.411 21.7926 159.282 23.578L159.227 24.4063C156.226 24.5903 153.298 24.756 150.058 24.9216L149.321 24.9585V26.7806V26.8911C149.487 28.0138 149.763 28.2715 149.837 28.3635L150.002 28.5292L150.242 28.566C151.328 28.7501 152.672 28.8421 154.311 28.8421C156.483 28.8421 158.343 28.7685 159.963 28.5844Z" fill="white"/>
<path d="M159.963 28.5844L159.613 29.0261C158.748 30.1121 158.03 31.0508 157.422 31.8975C156.318 31.4741 155.195 31.0876 154.09 30.7195L153.482 30.517L153.169 31.0692C152.654 32.0079 152.304 32.8362 152.101 33.6828L151.954 34.2534L152.47 34.5479C156.17 36.6462 159.448 38.0819 162.449 38.9101L162.983 39.0574L163.296 38.5972C163.793 37.861 164.18 37.0879 164.511 36.2229L164.732 35.6339L164.198 35.3026C163.296 34.7504 162.486 34.2718 161.712 33.8485C162.32 32.9466 162.836 32.0999 163.296 31.2349L163.609 30.6643L163.093 30.2593C162.265 29.6151 161.363 29.0998 160.516 28.7685L159.963 28.5844Z" fill="white" fill-opacity="0.8"/>
<path d="M164.898 10.565C161.988 8.20903 159.079 5.88989 156.226 3.66277L156.759 3.27625L156.446 2.68726C155.949 1.74856 155.268 0.975514 154.348 0.294495L153.942 0L153.501 0.239274C146.209 4.32538 139.6 8.72439 133.855 13.3259L133.45 13.6388L133.579 14.1357C133.837 15.0744 134.536 15.9579 135.641 16.7678L136.083 17.0807L136.525 16.7862C141.993 13.1786 147.093 9.79193 152.101 6.40525C155.213 9.14773 158.527 11.6693 161.97 13.8964L162.799 13.9885L162.928 13.878C163.848 13.1234 164.585 12.3135 165.026 11.5405L165.358 10.9699L164.898 10.565Z" fill="white"/>
<path d="M153.095 19.9704C149.708 19.5655 146.614 19.3078 143.89 19.2158C143.89 19.1053 143.871 18.9949 143.871 18.8845V18.2771L143.282 18.1298C142.95 18.0378 142.417 17.9274 141.791 17.9274C141.496 17.9274 141.165 17.9826 140.796 18.0562C140.686 18.0746 140.575 18.093 140.446 18.1114L140.06 18.1851L139.876 18.5348C139.728 18.8293 139.526 19.2158 139.526 27.6089C139.6 32.1919 139.765 35.6338 139.968 37.0327L140.041 37.5112L140.502 37.6585C141.312 37.9162 142.453 38.045 143.908 38.045C145.823 38.045 147.277 37.9162 148.253 37.6769L148.732 37.5665L148.824 37.0879C148.916 36.5909 148.971 36.1492 148.971 35.6707C148.971 35.413 148.953 35.1001 148.916 34.6951L148.824 33.5356L148.051 33.6092C146.983 33.7012 146.062 33.7748 145.215 33.8669C144.939 33.8669 144.608 33.8485 144.295 33.8301C144.276 31.0876 144.203 27.7009 144.074 23.5412C146.891 23.8909 149.8 24.0749 152.727 24.0749H153.353L153.482 23.4491C153.666 22.5288 153.758 21.627 153.758 20.7435V20.0624L153.095 19.9704Z" fill="white"/>
</svg>
