<svg width="225" height="215" viewBox="0 0 225 215" fill="none" xmlns="http://www.w3.org/2000/svg">
<path d="M29.8199 105.11C45.9411 105.11 59.0099 88.6251 59.0099 68.29C59.0099 47.9549 45.9411 31.47 29.8199 31.47C13.6987 31.47 0.629883 47.9549 0.629883 68.29C0.629883 88.6251 13.6987 105.11 29.8199 105.11Z" fill="#F7C23E"/>
<path d="M29.8198 147.05C28.9898 147.05 28.3198 146.38 28.3198 145.55V50.86C28.3198 50.03 28.9898 49.36 29.8198 49.36C30.6498 49.36 31.3198 50.03 31.3198 50.86V145.55C31.3198 146.38 30.6498 147.05 29.8198 147.05Z" fill="white"/>
<path d="M29.5598 64.72C29.1398 64.72 28.7298 64.55 28.4298 64.21L19.5898 54.15C19.0398 53.53 19.0998 52.58 19.7298 52.03C20.3498 51.48 21.2998 51.54 21.8498 52.17L30.6898 62.23C31.2398 62.85 31.1798 63.8 30.5498 64.35C30.2598 64.6 29.9098 64.72 29.5598 64.72Z" fill="white"/>
<path d="M30.5199 91.36C30.1399 91.36 29.7499 91.21 29.4599 90.92C28.8799 90.33 28.8799 89.38 29.4599 88.8L45.6399 72.7C46.2299 72.12 47.1799 72.12 47.7599 72.7C48.3399 73.29 48.3399 74.24 47.7599 74.82L31.5799 90.92C31.2899 91.21 30.9099 91.36 30.5199 91.36Z" fill="white"/>
<path d="M74.7001 89.43C94.0908 89.43 109.81 69.6052 109.81 45.15C109.81 20.6948 94.0908 0.869995 74.7001 0.869995C55.3094 0.869995 39.5901 20.6948 39.5901 45.15C39.5901 69.6052 55.3094 89.43 74.7001 89.43Z" fill="#04616E"/>
<path d="M74.7002 139.58C73.8702 139.58 73.2002 138.91 73.2002 138.08V24.1799C73.2002 23.3499 73.8702 22.6799 74.7002 22.6799C75.5302 22.6799 76.2002 23.3499 76.2002 24.1799V138.08C76.2002 138.91 75.5302 139.58 74.7002 139.58Z" fill="white"/>
<path d="M74.5603 64.6699C74.1403 64.6699 73.7303 64.4999 73.4303 64.1599L56.0803 44.3299C55.5303 43.7099 55.6003 42.7599 56.2203 42.2099C56.8403 41.6599 57.7903 41.7299 58.3403 42.3499L75.6903 62.1799C76.2403 62.7999 76.1703 63.7499 75.5503 64.2999C75.2703 64.5499 74.9103 64.6699 74.5603 64.6699Z" fill="white"/>
<path d="M74.3903 40.55C73.9703 40.55 73.5603 40.38 73.2603 40.04L62.6203 27.93C62.0703 27.31 62.1303 26.36 62.7603 25.81C63.3803 25.26 64.3303 25.33 64.8803 25.95L75.5203 38.06C76.0703 38.68 76.0103 39.63 75.3803 40.18C75.0903 40.43 74.7403 40.55 74.3903 40.55Z" fill="white"/>
<path d="M75.25 63.9801C74.87 63.9801 74.5 63.84 74.2 63.56C73.61 62.98 73.59 62.03 74.17 61.44L89.25 45.9501C89.83 45.3501 90.78 45.3401 91.37 45.9201C91.96 46.5001 91.98 47.4501 91.4 48.0401L76.32 63.53C76.03 63.83 75.64 63.9801 75.25 63.9801Z" fill="white"/>
<path d="M-0.00019455 214.38H47.0498L47.0498 135.35H-0.00019455L-0.00019455 214.38Z" fill="white"/>
<path d="M149.13 135.34H47.0498V214.37H149.13V135.34Z" fill="#F7C23E"/>
<path d="M149.39 135.34H0L23.38 100.94L125.61 100.84L149.39 135.34Z" fill="#B7E8EF"/>
<path d="M47.04 135.34H0L23.38 100.94L47.04 135.34Z" fill="white"/>
<path d="M78.25 161.02H65.29V181.87H78.25V161.02Z" fill="#04616E"/>
<path d="M107.55 161.02H94.5898V181.87H107.55V161.02Z" fill="#04616E"/>
<path d="M26.69 181.88H37.54V161.03H26.69V181.88Z" fill="#F76757"/>
<path d="M9.5001 181.88H20.3501L20.3501 161.03H9.5001L9.5001 181.88Z" fill="#F76757"/>
<path d="M23.5301 148.84C27.7716 148.84 31.2101 145.402 31.2101 141.16C31.2101 136.918 27.7716 133.48 23.5301 133.48C19.2886 133.48 15.8501 136.918 15.8501 141.16C15.8501 145.402 19.2886 148.84 23.5301 148.84Z" fill="#F7C23E"/>
<path d="M61.6602 120.45H224.12L196.33 79.5599L89.9302 79.45L61.6602 120.45Z" fill="#F7C23E"/>
<path d="M224.12 120.45H168.2V214.37H224.12V120.45Z" fill="white"/>
<path d="M168.21 120.45H224.12L196.33 79.5599L168.21 120.45Z" fill="white"/>
<path d="M196.16 143.37C202.301 143.37 207.28 138.391 207.28 132.25C207.28 126.108 202.301 121.13 196.16 121.13C190.019 121.13 185.04 126.108 185.04 132.25C185.04 138.391 190.019 143.37 196.16 143.37Z" fill="#F76757"/>
<path d="M61.6602 214.37H168.2V120.45L61.6602 120.45L61.6602 214.37Z" fill="#F76757"/>
<path d="M89.9303 133.79H76.8003V151.9H89.9303V133.79Z" fill="white"/>
<path d="M115.99 133.79H102.86V151.9H115.99V133.79Z" fill="white"/>
<path d="M142.06 133.79H128.93V151.9H142.06V133.79Z" fill="white"/>
<path d="M89.9303 165.26H76.8003V183.37H89.9303V165.26Z" fill="white"/>
<path d="M115.99 165.26H102.86V183.37H115.99V165.26Z" fill="white"/>
<path d="M142.06 165.26H128.93V183.37H142.06V165.26Z" fill="white"/>
</svg>
